<mxfile host="app.diagrams.net" modified="2023-12-14T17:11:09.443Z" agent="Mozilla/5.0 (Windows NT 10.0; Win64; x64) AppleWebKit/537.36 (KHTML, like Gecko) Chrome/118.0.5993.731 YaBrowser/23.11.1.731 Yowser/2.5 Safari/537.36" etag="4pPjZEpkRmj6ZhBRC7SW" version="22.1.8" type="device">
  <diagram name="Страница — 1" id="ZuTNgGko0LdiTm8sdOQf">
    <mxGraphModel dx="2219" dy="1371" grid="0" gridSize="10" guides="1" tooltips="1" connect="1" arrows="1" fold="1" page="0" pageScale="1" pageWidth="827" pageHeight="1169" math="0" shadow="0">
      <root>
        <mxCell id="0" />
        <mxCell id="1" parent="0" />
        <mxCell id="Hg6avNIUWi83sciiPh9P-1" value="Gate" style="shape=table;startSize=30;container=1;collapsible=0;childLayout=tableLayout;fixedRows=1;rowLines=0;fontStyle=0;strokeColor=default;fontSize=16;" parent="1" vertex="1">
          <mxGeometry x="102.5" y="-10" width="305" height="90" as="geometry" />
        </mxCell>
        <mxCell id="Hg6avNIUWi83sciiPh9P-2" value="" style="shape=tableRow;horizontal=0;startSize=0;swimlaneHead=0;swimlaneBody=0;top=0;left=0;bottom=0;right=0;collapsible=0;dropTarget=0;fillColor=none;points=[[0,0.5],[1,0.5]];portConstraint=eastwest;strokeColor=inherit;fontSize=16;" parent="Hg6avNIUWi83sciiPh9P-1" vertex="1">
          <mxGeometry y="30" width="305" height="30" as="geometry" />
        </mxCell>
        <mxCell id="Hg6avNIUWi83sciiPh9P-3" value="1" style="shape=partialRectangle;html=1;whiteSpace=wrap;connectable=0;fillColor=none;top=0;left=0;bottom=0;right=0;overflow=hidden;pointerEvents=1;strokeColor=inherit;fontSize=16;" parent="Hg6avNIUWi83sciiPh9P-2" vertex="1">
          <mxGeometry width="67" height="30" as="geometry">
            <mxRectangle width="67" height="30" as="alternateBounds" />
          </mxGeometry>
        </mxCell>
        <mxCell id="Hg6avNIUWi83sciiPh9P-4" value="ID_Gate: INTEGER" style="shape=partialRectangle;html=1;whiteSpace=wrap;connectable=0;fillColor=none;top=0;left=0;bottom=0;right=0;align=left;spacingLeft=6;overflow=hidden;strokeColor=inherit;fontSize=16;" parent="Hg6avNIUWi83sciiPh9P-2" vertex="1">
          <mxGeometry x="67" width="238" height="30" as="geometry">
            <mxRectangle width="238" height="30" as="alternateBounds" />
          </mxGeometry>
        </mxCell>
        <mxCell id="Hg6avNIUWi83sciiPh9P-5" value="" style="shape=tableRow;horizontal=0;startSize=0;swimlaneHead=0;swimlaneBody=0;top=0;left=0;bottom=0;right=0;collapsible=0;dropTarget=0;fillColor=none;points=[[0,0.5],[1,0.5]];portConstraint=eastwest;strokeColor=inherit;fontSize=16;" parent="Hg6avNIUWi83sciiPh9P-1" vertex="1">
          <mxGeometry y="60" width="305" height="30" as="geometry" />
        </mxCell>
        <mxCell id="Hg6avNIUWi83sciiPh9P-6" value="2" style="shape=partialRectangle;html=1;whiteSpace=wrap;connectable=0;fillColor=none;top=0;left=0;bottom=0;right=0;overflow=hidden;strokeColor=inherit;fontSize=16;" parent="Hg6avNIUWi83sciiPh9P-5" vertex="1">
          <mxGeometry width="67" height="30" as="geometry">
            <mxRectangle width="67" height="30" as="alternateBounds" />
          </mxGeometry>
        </mxCell>
        <mxCell id="Hg6avNIUWi83sciiPh9P-7" value="Название: VARCHAR(10)" style="shape=partialRectangle;html=1;whiteSpace=wrap;connectable=0;fillColor=none;top=0;left=0;bottom=0;right=0;align=left;spacingLeft=6;overflow=hidden;strokeColor=inherit;fontSize=16;" parent="Hg6avNIUWi83sciiPh9P-5" vertex="1">
          <mxGeometry x="67" width="238" height="30" as="geometry">
            <mxRectangle width="238" height="30" as="alternateBounds" />
          </mxGeometry>
        </mxCell>
        <mxCell id="Hg6avNIUWi83sciiPh9P-11" value="Самолет" style="shape=table;startSize=30;container=1;collapsible=0;childLayout=tableLayout;fixedRows=1;rowLines=0;fontStyle=0;strokeColor=default;fontSize=16;" parent="1" vertex="1">
          <mxGeometry x="571.25" y="350" width="300" height="120" as="geometry" />
        </mxCell>
        <mxCell id="Hg6avNIUWi83sciiPh9P-12" value="" style="shape=tableRow;horizontal=0;startSize=0;swimlaneHead=0;swimlaneBody=0;top=0;left=0;bottom=0;right=0;collapsible=0;dropTarget=0;fillColor=none;points=[[0,0.5],[1,0.5]];portConstraint=eastwest;strokeColor=inherit;fontSize=16;" parent="Hg6avNIUWi83sciiPh9P-11" vertex="1">
          <mxGeometry y="30" width="300" height="30" as="geometry" />
        </mxCell>
        <mxCell id="Hg6avNIUWi83sciiPh9P-13" value="1" style="shape=partialRectangle;html=1;whiteSpace=wrap;connectable=0;fillColor=none;top=0;left=0;bottom=0;right=0;overflow=hidden;pointerEvents=1;strokeColor=inherit;fontSize=16;" parent="Hg6avNIUWi83sciiPh9P-12" vertex="1">
          <mxGeometry width="66" height="30" as="geometry">
            <mxRectangle width="66" height="30" as="alternateBounds" />
          </mxGeometry>
        </mxCell>
        <mxCell id="Hg6avNIUWi83sciiPh9P-14" value="ID_Самолета: INTEGER" style="shape=partialRectangle;html=1;whiteSpace=wrap;connectable=0;fillColor=none;top=0;left=0;bottom=0;right=0;align=left;spacingLeft=6;overflow=hidden;strokeColor=inherit;fontSize=16;" parent="Hg6avNIUWi83sciiPh9P-12" vertex="1">
          <mxGeometry x="66" width="234" height="30" as="geometry">
            <mxRectangle width="234" height="30" as="alternateBounds" />
          </mxGeometry>
        </mxCell>
        <mxCell id="Hg6avNIUWi83sciiPh9P-15" value="" style="shape=tableRow;horizontal=0;startSize=0;swimlaneHead=0;swimlaneBody=0;top=0;left=0;bottom=0;right=0;collapsible=0;dropTarget=0;fillColor=none;points=[[0,0.5],[1,0.5]];portConstraint=eastwest;strokeColor=inherit;fontSize=16;" parent="Hg6avNIUWi83sciiPh9P-11" vertex="1">
          <mxGeometry y="60" width="300" height="30" as="geometry" />
        </mxCell>
        <mxCell id="Hg6avNIUWi83sciiPh9P-16" value="2" style="shape=partialRectangle;html=1;whiteSpace=wrap;connectable=0;fillColor=none;top=0;left=0;bottom=0;right=0;overflow=hidden;strokeColor=inherit;fontSize=16;" parent="Hg6avNIUWi83sciiPh9P-15" vertex="1">
          <mxGeometry width="66" height="30" as="geometry">
            <mxRectangle width="66" height="30" as="alternateBounds" />
          </mxGeometry>
        </mxCell>
        <mxCell id="Hg6avNIUWi83sciiPh9P-17" value="Модель: VARCHAR(50)" style="shape=partialRectangle;html=1;whiteSpace=wrap;connectable=0;fillColor=none;top=0;left=0;bottom=0;right=0;align=left;spacingLeft=6;overflow=hidden;strokeColor=inherit;fontSize=16;" parent="Hg6avNIUWi83sciiPh9P-15" vertex="1">
          <mxGeometry x="66" width="234" height="30" as="geometry">
            <mxRectangle width="234" height="30" as="alternateBounds" />
          </mxGeometry>
        </mxCell>
        <mxCell id="Hg6avNIUWi83sciiPh9P-18" value="" style="shape=tableRow;horizontal=0;startSize=0;swimlaneHead=0;swimlaneBody=0;top=0;left=0;bottom=0;right=0;collapsible=0;dropTarget=0;fillColor=none;points=[[0,0.5],[1,0.5]];portConstraint=eastwest;strokeColor=inherit;fontSize=16;" parent="Hg6avNIUWi83sciiPh9P-11" vertex="1">
          <mxGeometry y="90" width="300" height="30" as="geometry" />
        </mxCell>
        <mxCell id="Hg6avNIUWi83sciiPh9P-19" value="3" style="shape=partialRectangle;html=1;whiteSpace=wrap;connectable=0;fillColor=none;top=0;left=0;bottom=0;right=0;overflow=hidden;strokeColor=inherit;fontSize=16;" parent="Hg6avNIUWi83sciiPh9P-18" vertex="1">
          <mxGeometry width="66" height="30" as="geometry">
            <mxRectangle width="66" height="30" as="alternateBounds" />
          </mxGeometry>
        </mxCell>
        <mxCell id="Hg6avNIUWi83sciiPh9P-20" value="Вместимость: INTEGER" style="shape=partialRectangle;html=1;whiteSpace=wrap;connectable=0;fillColor=none;top=0;left=0;bottom=0;right=0;align=left;spacingLeft=6;overflow=hidden;strokeColor=inherit;fontSize=16;" parent="Hg6avNIUWi83sciiPh9P-18" vertex="1">
          <mxGeometry x="66" width="234" height="30" as="geometry">
            <mxRectangle width="234" height="30" as="alternateBounds" />
          </mxGeometry>
        </mxCell>
        <mxCell id="Hg6avNIUWi83sciiPh9P-21" value="Пассажиры" style="shape=table;startSize=30;container=1;collapsible=0;childLayout=tableLayout;fixedRows=1;rowLines=0;fontStyle=0;strokeColor=default;fontSize=16;" parent="1" vertex="1">
          <mxGeometry x="110" y="707" width="305" height="210" as="geometry" />
        </mxCell>
        <mxCell id="Hg6avNIUWi83sciiPh9P-22" value="" style="shape=tableRow;horizontal=0;startSize=0;swimlaneHead=0;swimlaneBody=0;top=0;left=0;bottom=0;right=0;collapsible=0;dropTarget=0;fillColor=none;points=[[0,0.5],[1,0.5]];portConstraint=eastwest;strokeColor=inherit;fontSize=16;" parent="Hg6avNIUWi83sciiPh9P-21" vertex="1">
          <mxGeometry y="30" width="305" height="30" as="geometry" />
        </mxCell>
        <mxCell id="Hg6avNIUWi83sciiPh9P-23" value="1" style="shape=partialRectangle;html=1;whiteSpace=wrap;connectable=0;fillColor=none;top=0;left=0;bottom=0;right=0;overflow=hidden;pointerEvents=1;strokeColor=inherit;fontSize=16;" parent="Hg6avNIUWi83sciiPh9P-22" vertex="1">
          <mxGeometry width="69" height="30" as="geometry">
            <mxRectangle width="69" height="30" as="alternateBounds" />
          </mxGeometry>
        </mxCell>
        <mxCell id="Hg6avNIUWi83sciiPh9P-24" value="ID_Пассажира: INTEGER" style="shape=partialRectangle;html=1;whiteSpace=wrap;connectable=0;fillColor=none;top=0;left=0;bottom=0;right=0;align=left;spacingLeft=6;overflow=hidden;strokeColor=inherit;fontSize=16;" parent="Hg6avNIUWi83sciiPh9P-22" vertex="1">
          <mxGeometry x="69" width="236" height="30" as="geometry">
            <mxRectangle width="236" height="30" as="alternateBounds" />
          </mxGeometry>
        </mxCell>
        <mxCell id="Hg6avNIUWi83sciiPh9P-25" value="" style="shape=tableRow;horizontal=0;startSize=0;swimlaneHead=0;swimlaneBody=0;top=0;left=0;bottom=0;right=0;collapsible=0;dropTarget=0;fillColor=none;points=[[0,0.5],[1,0.5]];portConstraint=eastwest;strokeColor=inherit;fontSize=16;" parent="Hg6avNIUWi83sciiPh9P-21" vertex="1">
          <mxGeometry y="60" width="305" height="30" as="geometry" />
        </mxCell>
        <mxCell id="Hg6avNIUWi83sciiPh9P-26" value="2" style="shape=partialRectangle;html=1;whiteSpace=wrap;connectable=0;fillColor=none;top=0;left=0;bottom=0;right=0;overflow=hidden;strokeColor=inherit;fontSize=16;" parent="Hg6avNIUWi83sciiPh9P-25" vertex="1">
          <mxGeometry width="69" height="30" as="geometry">
            <mxRectangle width="69" height="30" as="alternateBounds" />
          </mxGeometry>
        </mxCell>
        <mxCell id="Hg6avNIUWi83sciiPh9P-27" value="Фамилия: VARCHAR(25)" style="shape=partialRectangle;html=1;whiteSpace=wrap;connectable=0;fillColor=none;top=0;left=0;bottom=0;right=0;align=left;spacingLeft=6;overflow=hidden;strokeColor=inherit;fontSize=16;" parent="Hg6avNIUWi83sciiPh9P-25" vertex="1">
          <mxGeometry x="69" width="236" height="30" as="geometry">
            <mxRectangle width="236" height="30" as="alternateBounds" />
          </mxGeometry>
        </mxCell>
        <mxCell id="Hg6avNIUWi83sciiPh9P-28" value="" style="shape=tableRow;horizontal=0;startSize=0;swimlaneHead=0;swimlaneBody=0;top=0;left=0;bottom=0;right=0;collapsible=0;dropTarget=0;fillColor=none;points=[[0,0.5],[1,0.5]];portConstraint=eastwest;strokeColor=inherit;fontSize=16;" parent="Hg6avNIUWi83sciiPh9P-21" vertex="1">
          <mxGeometry y="90" width="305" height="30" as="geometry" />
        </mxCell>
        <mxCell id="Hg6avNIUWi83sciiPh9P-29" value="3" style="shape=partialRectangle;html=1;whiteSpace=wrap;connectable=0;fillColor=none;top=0;left=0;bottom=0;right=0;overflow=hidden;strokeColor=inherit;fontSize=16;" parent="Hg6avNIUWi83sciiPh9P-28" vertex="1">
          <mxGeometry width="69" height="30" as="geometry">
            <mxRectangle width="69" height="30" as="alternateBounds" />
          </mxGeometry>
        </mxCell>
        <mxCell id="Hg6avNIUWi83sciiPh9P-30" value="Имя: VARCHAR(25)" style="shape=partialRectangle;html=1;whiteSpace=wrap;connectable=0;fillColor=none;top=0;left=0;bottom=0;right=0;align=left;spacingLeft=6;overflow=hidden;strokeColor=inherit;fontSize=16;" parent="Hg6avNIUWi83sciiPh9P-28" vertex="1">
          <mxGeometry x="69" width="236" height="30" as="geometry">
            <mxRectangle width="236" height="30" as="alternateBounds" />
          </mxGeometry>
        </mxCell>
        <mxCell id="Hg6avNIUWi83sciiPh9P-102" value="" style="shape=tableRow;horizontal=0;startSize=0;swimlaneHead=0;swimlaneBody=0;top=0;left=0;bottom=0;right=0;collapsible=0;dropTarget=0;fillColor=none;points=[[0,0.5],[1,0.5]];portConstraint=eastwest;strokeColor=inherit;fontSize=16;" parent="Hg6avNIUWi83sciiPh9P-21" vertex="1">
          <mxGeometry y="120" width="305" height="30" as="geometry" />
        </mxCell>
        <mxCell id="Hg6avNIUWi83sciiPh9P-103" value="4" style="shape=partialRectangle;html=1;whiteSpace=wrap;connectable=0;fillColor=none;top=0;left=0;bottom=0;right=0;overflow=hidden;strokeColor=inherit;fontSize=16;" parent="Hg6avNIUWi83sciiPh9P-102" vertex="1">
          <mxGeometry width="69" height="30" as="geometry">
            <mxRectangle width="69" height="30" as="alternateBounds" />
          </mxGeometry>
        </mxCell>
        <mxCell id="Hg6avNIUWi83sciiPh9P-104" value="Отчество: VARCHAR(25)" style="shape=partialRectangle;html=1;whiteSpace=wrap;connectable=0;fillColor=none;top=0;left=0;bottom=0;right=0;align=left;spacingLeft=6;overflow=hidden;strokeColor=inherit;fontSize=16;" parent="Hg6avNIUWi83sciiPh9P-102" vertex="1">
          <mxGeometry x="69" width="236" height="30" as="geometry">
            <mxRectangle width="236" height="30" as="alternateBounds" />
          </mxGeometry>
        </mxCell>
        <mxCell id="Hg6avNIUWi83sciiPh9P-105" value="" style="shape=tableRow;horizontal=0;startSize=0;swimlaneHead=0;swimlaneBody=0;top=0;left=0;bottom=0;right=0;collapsible=0;dropTarget=0;fillColor=none;points=[[0,0.5],[1,0.5]];portConstraint=eastwest;strokeColor=inherit;fontSize=16;" parent="Hg6avNIUWi83sciiPh9P-21" vertex="1">
          <mxGeometry y="150" width="305" height="30" as="geometry" />
        </mxCell>
        <mxCell id="Hg6avNIUWi83sciiPh9P-106" value="5" style="shape=partialRectangle;html=1;whiteSpace=wrap;connectable=0;fillColor=none;top=0;left=0;bottom=0;right=0;overflow=hidden;strokeColor=inherit;fontSize=16;" parent="Hg6avNIUWi83sciiPh9P-105" vertex="1">
          <mxGeometry width="69" height="30" as="geometry">
            <mxRectangle width="69" height="30" as="alternateBounds" />
          </mxGeometry>
        </mxCell>
        <mxCell id="Hg6avNIUWi83sciiPh9P-107" value="Телефон: VARCHAR(20)" style="shape=partialRectangle;html=1;whiteSpace=wrap;connectable=0;fillColor=none;top=0;left=0;bottom=0;right=0;align=left;spacingLeft=6;overflow=hidden;strokeColor=inherit;fontSize=16;" parent="Hg6avNIUWi83sciiPh9P-105" vertex="1">
          <mxGeometry x="69" width="236" height="30" as="geometry">
            <mxRectangle width="236" height="30" as="alternateBounds" />
          </mxGeometry>
        </mxCell>
        <mxCell id="Hg6avNIUWi83sciiPh9P-108" value="" style="shape=tableRow;horizontal=0;startSize=0;swimlaneHead=0;swimlaneBody=0;top=0;left=0;bottom=0;right=0;collapsible=0;dropTarget=0;fillColor=none;points=[[0,0.5],[1,0.5]];portConstraint=eastwest;strokeColor=inherit;fontSize=16;" parent="Hg6avNIUWi83sciiPh9P-21" vertex="1">
          <mxGeometry y="180" width="305" height="30" as="geometry" />
        </mxCell>
        <mxCell id="Hg6avNIUWi83sciiPh9P-109" value="6" style="shape=partialRectangle;html=1;whiteSpace=wrap;connectable=0;fillColor=none;top=0;left=0;bottom=0;right=0;overflow=hidden;strokeColor=inherit;fontSize=16;" parent="Hg6avNIUWi83sciiPh9P-108" vertex="1">
          <mxGeometry width="69" height="30" as="geometry">
            <mxRectangle width="69" height="30" as="alternateBounds" />
          </mxGeometry>
        </mxCell>
        <mxCell id="Hg6avNIUWi83sciiPh9P-110" value="Номер паспорта: VARCHAR(6)" style="shape=partialRectangle;html=1;whiteSpace=wrap;connectable=0;fillColor=none;top=0;left=0;bottom=0;right=0;align=left;spacingLeft=6;overflow=hidden;strokeColor=inherit;fontSize=16;" parent="Hg6avNIUWi83sciiPh9P-108" vertex="1">
          <mxGeometry x="69" width="236" height="30" as="geometry">
            <mxRectangle width="236" height="30" as="alternateBounds" />
          </mxGeometry>
        </mxCell>
        <mxCell id="Hg6avNIUWi83sciiPh9P-31" value="Билеты" style="shape=table;startSize=30;container=1;collapsible=0;childLayout=tableLayout;fixedRows=1;rowLines=0;fontStyle=0;strokeColor=default;fontSize=16;" parent="1" vertex="1">
          <mxGeometry x="111.5" y="401" width="307.5" height="270" as="geometry" />
        </mxCell>
        <mxCell id="Hg6avNIUWi83sciiPh9P-32" value="" style="shape=tableRow;horizontal=0;startSize=0;swimlaneHead=0;swimlaneBody=0;top=0;left=0;bottom=0;right=0;collapsible=0;dropTarget=0;fillColor=none;points=[[0,0.5],[1,0.5]];portConstraint=eastwest;strokeColor=inherit;fontSize=16;" parent="Hg6avNIUWi83sciiPh9P-31" vertex="1">
          <mxGeometry y="30" width="307.5" height="30" as="geometry" />
        </mxCell>
        <mxCell id="Hg6avNIUWi83sciiPh9P-33" value="1" style="shape=partialRectangle;html=1;whiteSpace=wrap;connectable=0;fillColor=none;top=0;left=0;bottom=0;right=0;overflow=hidden;pointerEvents=1;strokeColor=inherit;fontSize=16;" parent="Hg6avNIUWi83sciiPh9P-32" vertex="1">
          <mxGeometry width="69" height="30" as="geometry">
            <mxRectangle width="69" height="30" as="alternateBounds" />
          </mxGeometry>
        </mxCell>
        <mxCell id="Hg6avNIUWi83sciiPh9P-34" value="ID_Билета: INTEGER" style="shape=partialRectangle;html=1;whiteSpace=wrap;connectable=0;fillColor=none;top=0;left=0;bottom=0;right=0;align=left;spacingLeft=6;overflow=hidden;strokeColor=inherit;fontSize=16;" parent="Hg6avNIUWi83sciiPh9P-32" vertex="1">
          <mxGeometry x="69" width="239" height="30" as="geometry">
            <mxRectangle width="239" height="30" as="alternateBounds" />
          </mxGeometry>
        </mxCell>
        <mxCell id="Hg6avNIUWi83sciiPh9P-35" value="" style="shape=tableRow;horizontal=0;startSize=0;swimlaneHead=0;swimlaneBody=0;top=0;left=0;bottom=0;right=0;collapsible=0;dropTarget=0;fillColor=none;points=[[0,0.5],[1,0.5]];portConstraint=eastwest;strokeColor=inherit;fontSize=16;" parent="Hg6avNIUWi83sciiPh9P-31" vertex="1">
          <mxGeometry y="60" width="307.5" height="30" as="geometry" />
        </mxCell>
        <mxCell id="Hg6avNIUWi83sciiPh9P-36" value="2" style="shape=partialRectangle;html=1;whiteSpace=wrap;connectable=0;fillColor=none;top=0;left=0;bottom=0;right=0;overflow=hidden;strokeColor=inherit;fontSize=16;" parent="Hg6avNIUWi83sciiPh9P-35" vertex="1">
          <mxGeometry width="69" height="30" as="geometry">
            <mxRectangle width="69" height="30" as="alternateBounds" />
          </mxGeometry>
        </mxCell>
        <mxCell id="Hg6avNIUWi83sciiPh9P-37" value="ID_Рейса: INTEGER" style="shape=partialRectangle;html=1;whiteSpace=wrap;connectable=0;fillColor=none;top=0;left=0;bottom=0;right=0;align=left;spacingLeft=6;overflow=hidden;strokeColor=inherit;fontSize=16;" parent="Hg6avNIUWi83sciiPh9P-35" vertex="1">
          <mxGeometry x="69" width="239" height="30" as="geometry">
            <mxRectangle width="239" height="30" as="alternateBounds" />
          </mxGeometry>
        </mxCell>
        <mxCell id="Hg6avNIUWi83sciiPh9P-38" value="" style="shape=tableRow;horizontal=0;startSize=0;swimlaneHead=0;swimlaneBody=0;top=0;left=0;bottom=0;right=0;collapsible=0;dropTarget=0;fillColor=none;points=[[0,0.5],[1,0.5]];portConstraint=eastwest;strokeColor=inherit;fontSize=16;" parent="Hg6avNIUWi83sciiPh9P-31" vertex="1">
          <mxGeometry y="90" width="307.5" height="30" as="geometry" />
        </mxCell>
        <mxCell id="Hg6avNIUWi83sciiPh9P-39" value="3" style="shape=partialRectangle;html=1;whiteSpace=wrap;connectable=0;fillColor=none;top=0;left=0;bottom=0;right=0;overflow=hidden;strokeColor=inherit;fontSize=16;" parent="Hg6avNIUWi83sciiPh9P-38" vertex="1">
          <mxGeometry width="69" height="30" as="geometry">
            <mxRectangle width="69" height="30" as="alternateBounds" />
          </mxGeometry>
        </mxCell>
        <mxCell id="Hg6avNIUWi83sciiPh9P-40" value="Цена: INTEGER" style="shape=partialRectangle;html=1;whiteSpace=wrap;connectable=0;fillColor=none;top=0;left=0;bottom=0;right=0;align=left;spacingLeft=6;overflow=hidden;strokeColor=inherit;fontSize=16;" parent="Hg6avNIUWi83sciiPh9P-38" vertex="1">
          <mxGeometry x="69" width="239" height="30" as="geometry">
            <mxRectangle width="239" height="30" as="alternateBounds" />
          </mxGeometry>
        </mxCell>
        <mxCell id="Hg6avNIUWi83sciiPh9P-117" value="" style="shape=tableRow;horizontal=0;startSize=0;swimlaneHead=0;swimlaneBody=0;top=0;left=0;bottom=0;right=0;collapsible=0;dropTarget=0;fillColor=none;points=[[0,0.5],[1,0.5]];portConstraint=eastwest;strokeColor=inherit;fontSize=16;" parent="Hg6avNIUWi83sciiPh9P-31" vertex="1">
          <mxGeometry y="120" width="307.5" height="30" as="geometry" />
        </mxCell>
        <mxCell id="Hg6avNIUWi83sciiPh9P-118" value="4" style="shape=partialRectangle;html=1;whiteSpace=wrap;connectable=0;fillColor=none;top=0;left=0;bottom=0;right=0;overflow=hidden;strokeColor=inherit;fontSize=16;" parent="Hg6avNIUWi83sciiPh9P-117" vertex="1">
          <mxGeometry width="69" height="30" as="geometry">
            <mxRectangle width="69" height="30" as="alternateBounds" />
          </mxGeometry>
        </mxCell>
        <mxCell id="Hg6avNIUWi83sciiPh9P-119" value="Место: VARCHAR(4)" style="shape=partialRectangle;html=1;whiteSpace=wrap;connectable=0;fillColor=none;top=0;left=0;bottom=0;right=0;align=left;spacingLeft=6;overflow=hidden;strokeColor=inherit;fontSize=16;" parent="Hg6avNIUWi83sciiPh9P-117" vertex="1">
          <mxGeometry x="69" width="239" height="30" as="geometry">
            <mxRectangle width="239" height="30" as="alternateBounds" />
          </mxGeometry>
        </mxCell>
        <mxCell id="Hg6avNIUWi83sciiPh9P-162" value="" style="shape=tableRow;horizontal=0;startSize=0;swimlaneHead=0;swimlaneBody=0;top=0;left=0;bottom=0;right=0;collapsible=0;dropTarget=0;fillColor=none;points=[[0,0.5],[1,0.5]];portConstraint=eastwest;strokeColor=inherit;fontSize=16;" parent="Hg6avNIUWi83sciiPh9P-31" vertex="1">
          <mxGeometry y="150" width="307.5" height="30" as="geometry" />
        </mxCell>
        <mxCell id="Hg6avNIUWi83sciiPh9P-163" value="5" style="shape=partialRectangle;html=1;whiteSpace=wrap;connectable=0;fillColor=none;top=0;left=0;bottom=0;right=0;overflow=hidden;strokeColor=inherit;fontSize=16;" parent="Hg6avNIUWi83sciiPh9P-162" vertex="1">
          <mxGeometry width="69" height="30" as="geometry">
            <mxRectangle width="69" height="30" as="alternateBounds" />
          </mxGeometry>
        </mxCell>
        <mxCell id="Hg6avNIUWi83sciiPh9P-164" value="ID_Пассажира: INTEGER" style="shape=partialRectangle;html=1;whiteSpace=wrap;connectable=0;fillColor=none;top=0;left=0;bottom=0;right=0;align=left;spacingLeft=6;overflow=hidden;strokeColor=inherit;fontSize=16;" parent="Hg6avNIUWi83sciiPh9P-162" vertex="1">
          <mxGeometry x="69" width="239" height="30" as="geometry">
            <mxRectangle width="239" height="30" as="alternateBounds" />
          </mxGeometry>
        </mxCell>
        <mxCell id="l9HdteqBgRpV_Ue3ZMmV-2" value="" style="shape=tableRow;horizontal=0;startSize=0;swimlaneHead=0;swimlaneBody=0;top=0;left=0;bottom=0;right=0;collapsible=0;dropTarget=0;fillColor=none;points=[[0,0.5],[1,0.5]];portConstraint=eastwest;strokeColor=inherit;fontSize=16;" parent="Hg6avNIUWi83sciiPh9P-31" vertex="1">
          <mxGeometry y="180" width="307.5" height="30" as="geometry" />
        </mxCell>
        <mxCell id="l9HdteqBgRpV_Ue3ZMmV-3" value="6" style="shape=partialRectangle;html=1;whiteSpace=wrap;connectable=0;fillColor=none;top=0;left=0;bottom=0;right=0;overflow=hidden;strokeColor=inherit;fontSize=16;" parent="l9HdteqBgRpV_Ue3ZMmV-2" vertex="1">
          <mxGeometry width="69" height="30" as="geometry">
            <mxRectangle width="69" height="30" as="alternateBounds" />
          </mxGeometry>
        </mxCell>
        <mxCell id="l9HdteqBgRpV_Ue3ZMmV-4" value="Оплачен: BOOLEAN" style="shape=partialRectangle;html=1;whiteSpace=wrap;connectable=0;fillColor=none;top=0;left=0;bottom=0;right=0;align=left;spacingLeft=6;overflow=hidden;strokeColor=inherit;fontSize=16;" parent="l9HdteqBgRpV_Ue3ZMmV-2" vertex="1">
          <mxGeometry x="69" width="239" height="30" as="geometry">
            <mxRectangle width="239" height="30" as="alternateBounds" />
          </mxGeometry>
        </mxCell>
        <mxCell id="l9HdteqBgRpV_Ue3ZMmV-25" value="" style="shape=tableRow;horizontal=0;startSize=0;swimlaneHead=0;swimlaneBody=0;top=0;left=0;bottom=0;right=0;collapsible=0;dropTarget=0;fillColor=none;points=[[0,0.5],[1,0.5]];portConstraint=eastwest;strokeColor=inherit;fontSize=16;" parent="Hg6avNIUWi83sciiPh9P-31" vertex="1">
          <mxGeometry y="210" width="307.5" height="30" as="geometry" />
        </mxCell>
        <mxCell id="l9HdteqBgRpV_Ue3ZMmV-26" value="7" style="shape=partialRectangle;html=1;whiteSpace=wrap;connectable=0;fillColor=none;top=0;left=0;bottom=0;right=0;overflow=hidden;strokeColor=inherit;fontSize=16;" parent="l9HdteqBgRpV_Ue3ZMmV-25" vertex="1">
          <mxGeometry width="69" height="30" as="geometry">
            <mxRectangle width="69" height="30" as="alternateBounds" />
          </mxGeometry>
        </mxCell>
        <mxCell id="l9HdteqBgRpV_Ue3ZMmV-27" value="ID_Льготы: INTEGER" style="shape=partialRectangle;html=1;whiteSpace=wrap;connectable=0;fillColor=none;top=0;left=0;bottom=0;right=0;align=left;spacingLeft=6;overflow=hidden;strokeColor=inherit;fontSize=16;" parent="l9HdteqBgRpV_Ue3ZMmV-25" vertex="1">
          <mxGeometry x="69" width="239" height="30" as="geometry">
            <mxRectangle width="239" height="30" as="alternateBounds" />
          </mxGeometry>
        </mxCell>
        <mxCell id="SDJYcs08kDQBclbEcMUW-222" value="" style="shape=tableRow;horizontal=0;startSize=0;swimlaneHead=0;swimlaneBody=0;top=0;left=0;bottom=0;right=0;collapsible=0;dropTarget=0;fillColor=none;points=[[0,0.5],[1,0.5]];portConstraint=eastwest;strokeColor=inherit;fontSize=16;" vertex="1" parent="Hg6avNIUWi83sciiPh9P-31">
          <mxGeometry y="240" width="307.5" height="30" as="geometry" />
        </mxCell>
        <mxCell id="SDJYcs08kDQBclbEcMUW-223" value="8" style="shape=partialRectangle;html=1;whiteSpace=wrap;connectable=0;fillColor=none;top=0;left=0;bottom=0;right=0;overflow=hidden;strokeColor=inherit;fontSize=16;" vertex="1" parent="SDJYcs08kDQBclbEcMUW-222">
          <mxGeometry width="69" height="30" as="geometry">
            <mxRectangle width="69" height="30" as="alternateBounds" />
          </mxGeometry>
        </mxCell>
        <mxCell id="SDJYcs08kDQBclbEcMUW-224" value="ID_Бронирования: INTEGER" style="shape=partialRectangle;html=1;whiteSpace=wrap;connectable=0;fillColor=none;top=0;left=0;bottom=0;right=0;align=left;spacingLeft=6;overflow=hidden;strokeColor=inherit;fontSize=16;" vertex="1" parent="SDJYcs08kDQBclbEcMUW-222">
          <mxGeometry x="69" width="239" height="30" as="geometry">
            <mxRectangle width="239" height="30" as="alternateBounds" />
          </mxGeometry>
        </mxCell>
        <mxCell id="Hg6avNIUWi83sciiPh9P-41" value="Рейс" style="shape=table;startSize=30;container=1;collapsible=0;childLayout=tableLayout;fixedRows=1;rowLines=0;fontStyle=0;strokeColor=default;fontSize=16;" parent="1" vertex="1">
          <mxGeometry x="80.25" y="100" width="349.5" height="270" as="geometry" />
        </mxCell>
        <mxCell id="Hg6avNIUWi83sciiPh9P-42" value="" style="shape=tableRow;horizontal=0;startSize=0;swimlaneHead=0;swimlaneBody=0;top=0;left=0;bottom=0;right=0;collapsible=0;dropTarget=0;fillColor=none;points=[[0,0.5],[1,0.5]];portConstraint=eastwest;strokeColor=inherit;fontSize=16;" parent="Hg6avNIUWi83sciiPh9P-41" vertex="1">
          <mxGeometry y="30" width="349.5" height="30" as="geometry" />
        </mxCell>
        <mxCell id="Hg6avNIUWi83sciiPh9P-43" value="1" style="shape=partialRectangle;html=1;whiteSpace=wrap;connectable=0;fillColor=none;top=0;left=0;bottom=0;right=0;overflow=hidden;pointerEvents=1;strokeColor=inherit;fontSize=16;" parent="Hg6avNIUWi83sciiPh9P-42" vertex="1">
          <mxGeometry width="76" height="30" as="geometry">
            <mxRectangle width="76" height="30" as="alternateBounds" />
          </mxGeometry>
        </mxCell>
        <mxCell id="Hg6avNIUWi83sciiPh9P-44" value="ID_Рейса: INTEGER" style="shape=partialRectangle;html=1;whiteSpace=wrap;connectable=0;fillColor=none;top=0;left=0;bottom=0;right=0;align=left;spacingLeft=6;overflow=hidden;strokeColor=inherit;fontSize=16;" parent="Hg6avNIUWi83sciiPh9P-42" vertex="1">
          <mxGeometry x="76" width="274" height="30" as="geometry">
            <mxRectangle width="274" height="30" as="alternateBounds" />
          </mxGeometry>
        </mxCell>
        <mxCell id="Hg6avNIUWi83sciiPh9P-45" value="" style="shape=tableRow;horizontal=0;startSize=0;swimlaneHead=0;swimlaneBody=0;top=0;left=0;bottom=0;right=0;collapsible=0;dropTarget=0;fillColor=none;points=[[0,0.5],[1,0.5]];portConstraint=eastwest;strokeColor=inherit;fontSize=16;" parent="Hg6avNIUWi83sciiPh9P-41" vertex="1">
          <mxGeometry y="60" width="349.5" height="30" as="geometry" />
        </mxCell>
        <mxCell id="Hg6avNIUWi83sciiPh9P-46" value="2" style="shape=partialRectangle;html=1;whiteSpace=wrap;connectable=0;fillColor=none;top=0;left=0;bottom=0;right=0;overflow=hidden;strokeColor=inherit;fontSize=16;" parent="Hg6avNIUWi83sciiPh9P-45" vertex="1">
          <mxGeometry width="76" height="30" as="geometry">
            <mxRectangle width="76" height="30" as="alternateBounds" />
          </mxGeometry>
        </mxCell>
        <mxCell id="Hg6avNIUWi83sciiPh9P-47" value="ID_Авиакомпании: INTEGER" style="shape=partialRectangle;html=1;whiteSpace=wrap;connectable=0;fillColor=none;top=0;left=0;bottom=0;right=0;align=left;spacingLeft=6;overflow=hidden;strokeColor=inherit;fontSize=16;" parent="Hg6avNIUWi83sciiPh9P-45" vertex="1">
          <mxGeometry x="76" width="274" height="30" as="geometry">
            <mxRectangle width="274" height="30" as="alternateBounds" />
          </mxGeometry>
        </mxCell>
        <mxCell id="Hg6avNIUWi83sciiPh9P-48" value="" style="shape=tableRow;horizontal=0;startSize=0;swimlaneHead=0;swimlaneBody=0;top=0;left=0;bottom=0;right=0;collapsible=0;dropTarget=0;fillColor=none;points=[[0,0.5],[1,0.5]];portConstraint=eastwest;strokeColor=inherit;fontSize=16;" parent="Hg6avNIUWi83sciiPh9P-41" vertex="1">
          <mxGeometry y="90" width="349.5" height="30" as="geometry" />
        </mxCell>
        <mxCell id="Hg6avNIUWi83sciiPh9P-49" value="3" style="shape=partialRectangle;html=1;whiteSpace=wrap;connectable=0;fillColor=none;top=0;left=0;bottom=0;right=0;overflow=hidden;strokeColor=inherit;fontSize=16;" parent="Hg6avNIUWi83sciiPh9P-48" vertex="1">
          <mxGeometry width="76" height="30" as="geometry">
            <mxRectangle width="76" height="30" as="alternateBounds" />
          </mxGeometry>
        </mxCell>
        <mxCell id="Hg6avNIUWi83sciiPh9P-50" value="ID_Gate: INTEGER" style="shape=partialRectangle;html=1;whiteSpace=wrap;connectable=0;fillColor=none;top=0;left=0;bottom=0;right=0;align=left;spacingLeft=6;overflow=hidden;strokeColor=inherit;fontSize=16;" parent="Hg6avNIUWi83sciiPh9P-48" vertex="1">
          <mxGeometry x="76" width="274" height="30" as="geometry">
            <mxRectangle width="274" height="30" as="alternateBounds" />
          </mxGeometry>
        </mxCell>
        <mxCell id="Hg6avNIUWi83sciiPh9P-120" value="" style="shape=tableRow;horizontal=0;startSize=0;swimlaneHead=0;swimlaneBody=0;top=0;left=0;bottom=0;right=0;collapsible=0;dropTarget=0;fillColor=none;points=[[0,0.5],[1,0.5]];portConstraint=eastwest;strokeColor=inherit;fontSize=16;" parent="Hg6avNIUWi83sciiPh9P-41" vertex="1">
          <mxGeometry y="120" width="349.5" height="30" as="geometry" />
        </mxCell>
        <mxCell id="Hg6avNIUWi83sciiPh9P-121" value="4" style="shape=partialRectangle;html=1;whiteSpace=wrap;connectable=0;fillColor=none;top=0;left=0;bottom=0;right=0;overflow=hidden;strokeColor=inherit;fontSize=16;" parent="Hg6avNIUWi83sciiPh9P-120" vertex="1">
          <mxGeometry width="76" height="30" as="geometry">
            <mxRectangle width="76" height="30" as="alternateBounds" />
          </mxGeometry>
        </mxCell>
        <mxCell id="Hg6avNIUWi83sciiPh9P-122" value="ID_Полосы: INTEGER" style="shape=partialRectangle;html=1;whiteSpace=wrap;connectable=0;fillColor=none;top=0;left=0;bottom=0;right=0;align=left;spacingLeft=6;overflow=hidden;strokeColor=inherit;fontSize=16;" parent="Hg6avNIUWi83sciiPh9P-120" vertex="1">
          <mxGeometry x="76" width="274" height="30" as="geometry">
            <mxRectangle width="274" height="30" as="alternateBounds" />
          </mxGeometry>
        </mxCell>
        <mxCell id="Hg6avNIUWi83sciiPh9P-123" value="" style="shape=tableRow;horizontal=0;startSize=0;swimlaneHead=0;swimlaneBody=0;top=0;left=0;bottom=0;right=0;collapsible=0;dropTarget=0;fillColor=none;points=[[0,0.5],[1,0.5]];portConstraint=eastwest;strokeColor=inherit;fontSize=16;" parent="Hg6avNIUWi83sciiPh9P-41" vertex="1">
          <mxGeometry y="150" width="349.5" height="30" as="geometry" />
        </mxCell>
        <mxCell id="Hg6avNIUWi83sciiPh9P-124" value="5" style="shape=partialRectangle;html=1;whiteSpace=wrap;connectable=0;fillColor=none;top=0;left=0;bottom=0;right=0;overflow=hidden;strokeColor=inherit;fontSize=16;" parent="Hg6avNIUWi83sciiPh9P-123" vertex="1">
          <mxGeometry width="76" height="30" as="geometry">
            <mxRectangle width="76" height="30" as="alternateBounds" />
          </mxGeometry>
        </mxCell>
        <mxCell id="Hg6avNIUWi83sciiPh9P-125" value="ID_Самолета: INTEGER" style="shape=partialRectangle;html=1;whiteSpace=wrap;connectable=0;fillColor=none;top=0;left=0;bottom=0;right=0;align=left;spacingLeft=6;overflow=hidden;strokeColor=inherit;fontSize=16;" parent="Hg6avNIUWi83sciiPh9P-123" vertex="1">
          <mxGeometry x="76" width="274" height="30" as="geometry">
            <mxRectangle width="274" height="30" as="alternateBounds" />
          </mxGeometry>
        </mxCell>
        <mxCell id="Hg6avNIUWi83sciiPh9P-129" value="" style="shape=tableRow;horizontal=0;startSize=0;swimlaneHead=0;swimlaneBody=0;top=0;left=0;bottom=0;right=0;collapsible=0;dropTarget=0;fillColor=none;points=[[0,0.5],[1,0.5]];portConstraint=eastwest;strokeColor=inherit;fontSize=16;" parent="Hg6avNIUWi83sciiPh9P-41" vertex="1">
          <mxGeometry y="180" width="349.5" height="30" as="geometry" />
        </mxCell>
        <mxCell id="Hg6avNIUWi83sciiPh9P-130" value="6" style="shape=partialRectangle;html=1;whiteSpace=wrap;connectable=0;fillColor=none;top=0;left=0;bottom=0;right=0;overflow=hidden;strokeColor=inherit;fontSize=16;" parent="Hg6avNIUWi83sciiPh9P-129" vertex="1">
          <mxGeometry width="76" height="30" as="geometry">
            <mxRectangle width="76" height="30" as="alternateBounds" />
          </mxGeometry>
        </mxCell>
        <mxCell id="Hg6avNIUWi83sciiPh9P-131" value="Время вылета: DATETIME" style="shape=partialRectangle;html=1;whiteSpace=wrap;connectable=0;fillColor=none;top=0;left=0;bottom=0;right=0;align=left;spacingLeft=6;overflow=hidden;strokeColor=inherit;fontSize=16;" parent="Hg6avNIUWi83sciiPh9P-129" vertex="1">
          <mxGeometry x="76" width="274" height="30" as="geometry">
            <mxRectangle width="274" height="30" as="alternateBounds" />
          </mxGeometry>
        </mxCell>
        <mxCell id="Hg6avNIUWi83sciiPh9P-132" value="" style="shape=tableRow;horizontal=0;startSize=0;swimlaneHead=0;swimlaneBody=0;top=0;left=0;bottom=0;right=0;collapsible=0;dropTarget=0;fillColor=none;points=[[0,0.5],[1,0.5]];portConstraint=eastwest;strokeColor=inherit;fontSize=16;" parent="Hg6avNIUWi83sciiPh9P-41" vertex="1">
          <mxGeometry y="210" width="349.5" height="30" as="geometry" />
        </mxCell>
        <mxCell id="Hg6avNIUWi83sciiPh9P-133" value="7" style="shape=partialRectangle;html=1;whiteSpace=wrap;connectable=0;fillColor=none;top=0;left=0;bottom=0;right=0;overflow=hidden;strokeColor=inherit;fontSize=16;" parent="Hg6avNIUWi83sciiPh9P-132" vertex="1">
          <mxGeometry width="76" height="30" as="geometry">
            <mxRectangle width="76" height="30" as="alternateBounds" />
          </mxGeometry>
        </mxCell>
        <mxCell id="Hg6avNIUWi83sciiPh9P-134" value="Время прилета: DATETIME" style="shape=partialRectangle;html=1;whiteSpace=wrap;connectable=0;fillColor=none;top=0;left=0;bottom=0;right=0;align=left;spacingLeft=6;overflow=hidden;strokeColor=inherit;fontSize=16;" parent="Hg6avNIUWi83sciiPh9P-132" vertex="1">
          <mxGeometry x="76" width="274" height="30" as="geometry">
            <mxRectangle width="274" height="30" as="alternateBounds" />
          </mxGeometry>
        </mxCell>
        <mxCell id="SDJYcs08kDQBclbEcMUW-213" value="" style="shape=tableRow;horizontal=0;startSize=0;swimlaneHead=0;swimlaneBody=0;top=0;left=0;bottom=0;right=0;collapsible=0;dropTarget=0;fillColor=none;points=[[0,0.5],[1,0.5]];portConstraint=eastwest;strokeColor=inherit;fontSize=16;" vertex="1" parent="Hg6avNIUWi83sciiPh9P-41">
          <mxGeometry y="240" width="349.5" height="30" as="geometry" />
        </mxCell>
        <mxCell id="SDJYcs08kDQBclbEcMUW-214" value="8" style="shape=partialRectangle;html=1;whiteSpace=wrap;connectable=0;fillColor=none;top=0;left=0;bottom=0;right=0;overflow=hidden;strokeColor=inherit;fontSize=16;" vertex="1" parent="SDJYcs08kDQBclbEcMUW-213">
          <mxGeometry width="76" height="30" as="geometry">
            <mxRectangle width="76" height="30" as="alternateBounds" />
          </mxGeometry>
        </mxCell>
        <mxCell id="SDJYcs08kDQBclbEcMUW-215" value="Пункт назначения: VARCHAR(25)" style="shape=partialRectangle;html=1;whiteSpace=wrap;connectable=0;fillColor=none;top=0;left=0;bottom=0;right=0;align=left;spacingLeft=6;overflow=hidden;strokeColor=inherit;fontSize=16;" vertex="1" parent="SDJYcs08kDQBclbEcMUW-213">
          <mxGeometry x="76" width="274" height="30" as="geometry">
            <mxRectangle width="274" height="30" as="alternateBounds" />
          </mxGeometry>
        </mxCell>
        <mxCell id="Hg6avNIUWi83sciiPh9P-71" value="Полоса" style="shape=table;startSize=30;container=1;collapsible=0;childLayout=tableLayout;fixedRows=1;rowLines=0;fontStyle=0;strokeColor=default;fontSize=16;" parent="1" vertex="1">
          <mxGeometry x="571.25" y="240" width="305" height="90" as="geometry" />
        </mxCell>
        <mxCell id="Hg6avNIUWi83sciiPh9P-72" value="" style="shape=tableRow;horizontal=0;startSize=0;swimlaneHead=0;swimlaneBody=0;top=0;left=0;bottom=0;right=0;collapsible=0;dropTarget=0;fillColor=none;points=[[0,0.5],[1,0.5]];portConstraint=eastwest;strokeColor=inherit;fontSize=16;" parent="Hg6avNIUWi83sciiPh9P-71" vertex="1">
          <mxGeometry y="30" width="305" height="30" as="geometry" />
        </mxCell>
        <mxCell id="Hg6avNIUWi83sciiPh9P-73" value="1" style="shape=partialRectangle;html=1;whiteSpace=wrap;connectable=0;fillColor=none;top=0;left=0;bottom=0;right=0;overflow=hidden;pointerEvents=1;strokeColor=inherit;fontSize=16;" parent="Hg6avNIUWi83sciiPh9P-72" vertex="1">
          <mxGeometry width="68" height="30" as="geometry">
            <mxRectangle width="68" height="30" as="alternateBounds" />
          </mxGeometry>
        </mxCell>
        <mxCell id="Hg6avNIUWi83sciiPh9P-74" value="ID_Полосы: INTEGER" style="shape=partialRectangle;html=1;whiteSpace=wrap;connectable=0;fillColor=none;top=0;left=0;bottom=0;right=0;align=left;spacingLeft=6;overflow=hidden;strokeColor=inherit;fontSize=16;" parent="Hg6avNIUWi83sciiPh9P-72" vertex="1">
          <mxGeometry x="68" width="237" height="30" as="geometry">
            <mxRectangle width="237" height="30" as="alternateBounds" />
          </mxGeometry>
        </mxCell>
        <mxCell id="Hg6avNIUWi83sciiPh9P-75" value="" style="shape=tableRow;horizontal=0;startSize=0;swimlaneHead=0;swimlaneBody=0;top=0;left=0;bottom=0;right=0;collapsible=0;dropTarget=0;fillColor=none;points=[[0,0.5],[1,0.5]];portConstraint=eastwest;strokeColor=inherit;fontSize=16;" parent="Hg6avNIUWi83sciiPh9P-71" vertex="1">
          <mxGeometry y="60" width="305" height="30" as="geometry" />
        </mxCell>
        <mxCell id="Hg6avNIUWi83sciiPh9P-76" value="2" style="shape=partialRectangle;html=1;whiteSpace=wrap;connectable=0;fillColor=none;top=0;left=0;bottom=0;right=0;overflow=hidden;strokeColor=inherit;fontSize=16;" parent="Hg6avNIUWi83sciiPh9P-75" vertex="1">
          <mxGeometry width="68" height="30" as="geometry">
            <mxRectangle width="68" height="30" as="alternateBounds" />
          </mxGeometry>
        </mxCell>
        <mxCell id="Hg6avNIUWi83sciiPh9P-77" value="Название: VARCHAR(5)" style="shape=partialRectangle;html=1;whiteSpace=wrap;connectable=0;fillColor=none;top=0;left=0;bottom=0;right=0;align=left;spacingLeft=6;overflow=hidden;strokeColor=inherit;fontSize=16;" parent="Hg6avNIUWi83sciiPh9P-75" vertex="1">
          <mxGeometry x="68" width="237" height="30" as="geometry">
            <mxRectangle width="237" height="30" as="alternateBounds" />
          </mxGeometry>
        </mxCell>
        <mxCell id="Hg6avNIUWi83sciiPh9P-82" value="Авиакомпания" style="shape=table;startSize=30;container=1;collapsible=0;childLayout=tableLayout;fixedRows=1;rowLines=0;fontStyle=0;strokeColor=default;fontSize=16;" parent="1" vertex="1">
          <mxGeometry x="571.25" y="92" width="300" height="120" as="geometry" />
        </mxCell>
        <mxCell id="Hg6avNIUWi83sciiPh9P-83" value="" style="shape=tableRow;horizontal=0;startSize=0;swimlaneHead=0;swimlaneBody=0;top=0;left=0;bottom=0;right=0;collapsible=0;dropTarget=0;fillColor=none;points=[[0,0.5],[1,0.5]];portConstraint=eastwest;strokeColor=inherit;fontSize=16;" parent="Hg6avNIUWi83sciiPh9P-82" vertex="1">
          <mxGeometry y="30" width="300" height="30" as="geometry" />
        </mxCell>
        <mxCell id="Hg6avNIUWi83sciiPh9P-84" value="1" style="shape=partialRectangle;html=1;whiteSpace=wrap;connectable=0;fillColor=none;top=0;left=0;bottom=0;right=0;overflow=hidden;pointerEvents=1;strokeColor=inherit;fontSize=16;" parent="Hg6avNIUWi83sciiPh9P-83" vertex="1">
          <mxGeometry width="66" height="30" as="geometry">
            <mxRectangle width="66" height="30" as="alternateBounds" />
          </mxGeometry>
        </mxCell>
        <mxCell id="Hg6avNIUWi83sciiPh9P-85" value="ID_Авиакомпании: INTEGER" style="shape=partialRectangle;html=1;whiteSpace=wrap;connectable=0;fillColor=none;top=0;left=0;bottom=0;right=0;align=left;spacingLeft=6;overflow=hidden;strokeColor=inherit;fontSize=16;" parent="Hg6avNIUWi83sciiPh9P-83" vertex="1">
          <mxGeometry x="66" width="234" height="30" as="geometry">
            <mxRectangle width="234" height="30" as="alternateBounds" />
          </mxGeometry>
        </mxCell>
        <mxCell id="Hg6avNIUWi83sciiPh9P-86" value="" style="shape=tableRow;horizontal=0;startSize=0;swimlaneHead=0;swimlaneBody=0;top=0;left=0;bottom=0;right=0;collapsible=0;dropTarget=0;fillColor=none;points=[[0,0.5],[1,0.5]];portConstraint=eastwest;strokeColor=inherit;fontSize=16;" parent="Hg6avNIUWi83sciiPh9P-82" vertex="1">
          <mxGeometry y="60" width="300" height="30" as="geometry" />
        </mxCell>
        <mxCell id="Hg6avNIUWi83sciiPh9P-87" value="2" style="shape=partialRectangle;html=1;whiteSpace=wrap;connectable=0;fillColor=none;top=0;left=0;bottom=0;right=0;overflow=hidden;strokeColor=inherit;fontSize=16;" parent="Hg6avNIUWi83sciiPh9P-86" vertex="1">
          <mxGeometry width="66" height="30" as="geometry">
            <mxRectangle width="66" height="30" as="alternateBounds" />
          </mxGeometry>
        </mxCell>
        <mxCell id="Hg6avNIUWi83sciiPh9P-88" value="Название: VARCHAR(50)" style="shape=partialRectangle;html=1;whiteSpace=wrap;connectable=0;fillColor=none;top=0;left=0;bottom=0;right=0;align=left;spacingLeft=6;overflow=hidden;strokeColor=inherit;fontSize=16;" parent="Hg6avNIUWi83sciiPh9P-86" vertex="1">
          <mxGeometry x="66" width="234" height="30" as="geometry">
            <mxRectangle width="234" height="30" as="alternateBounds" />
          </mxGeometry>
        </mxCell>
        <mxCell id="l9HdteqBgRpV_Ue3ZMmV-29" value="" style="shape=tableRow;horizontal=0;startSize=0;swimlaneHead=0;swimlaneBody=0;top=0;left=0;bottom=0;right=0;collapsible=0;dropTarget=0;fillColor=none;points=[[0,0.5],[1,0.5]];portConstraint=eastwest;strokeColor=inherit;fontSize=16;" parent="Hg6avNIUWi83sciiPh9P-82" vertex="1">
          <mxGeometry y="90" width="300" height="30" as="geometry" />
        </mxCell>
        <mxCell id="l9HdteqBgRpV_Ue3ZMmV-30" value="3" style="shape=partialRectangle;html=1;whiteSpace=wrap;connectable=0;fillColor=none;top=0;left=0;bottom=0;right=0;overflow=hidden;strokeColor=inherit;fontSize=16;" parent="l9HdteqBgRpV_Ue3ZMmV-29" vertex="1">
          <mxGeometry width="66" height="30" as="geometry">
            <mxRectangle width="66" height="30" as="alternateBounds" />
          </mxGeometry>
        </mxCell>
        <mxCell id="l9HdteqBgRpV_Ue3ZMmV-31" value="Телефон: VARCHAR(20)" style="shape=partialRectangle;html=1;whiteSpace=wrap;connectable=0;fillColor=none;top=0;left=0;bottom=0;right=0;align=left;spacingLeft=6;overflow=hidden;strokeColor=inherit;fontSize=16;" parent="l9HdteqBgRpV_Ue3ZMmV-29" vertex="1">
          <mxGeometry x="66" width="234" height="30" as="geometry">
            <mxRectangle width="234" height="30" as="alternateBounds" />
          </mxGeometry>
        </mxCell>
        <mxCell id="SDJYcs08kDQBclbEcMUW-225" style="edgeStyle=orthogonalEdgeStyle;rounded=0;orthogonalLoop=1;jettySize=auto;html=1;entryX=1;entryY=0.5;entryDx=0;entryDy=0;" edge="1" parent="1" source="Hg6avNIUWi83sciiPh9P-92" target="SDJYcs08kDQBclbEcMUW-222">
          <mxGeometry relative="1" as="geometry" />
        </mxCell>
        <mxCell id="Hg6avNIUWi83sciiPh9P-92" value="Бронирование" style="shape=table;startSize=30;container=1;collapsible=0;childLayout=tableLayout;fixedRows=1;rowLines=0;fontStyle=0;strokeColor=default;fontSize=16;" parent="1" vertex="1">
          <mxGeometry x="550" y="649" width="307.5" height="90" as="geometry" />
        </mxCell>
        <mxCell id="Hg6avNIUWi83sciiPh9P-93" value="" style="shape=tableRow;horizontal=0;startSize=0;swimlaneHead=0;swimlaneBody=0;top=0;left=0;bottom=0;right=0;collapsible=0;dropTarget=0;fillColor=none;points=[[0,0.5],[1,0.5]];portConstraint=eastwest;strokeColor=inherit;fontSize=16;" parent="Hg6avNIUWi83sciiPh9P-92" vertex="1">
          <mxGeometry y="30" width="307.5" height="30" as="geometry" />
        </mxCell>
        <mxCell id="Hg6avNIUWi83sciiPh9P-94" value="1" style="shape=partialRectangle;html=1;whiteSpace=wrap;connectable=0;fillColor=none;top=0;left=0;bottom=0;right=0;overflow=hidden;pointerEvents=1;strokeColor=inherit;fontSize=16;" parent="Hg6avNIUWi83sciiPh9P-93" vertex="1">
          <mxGeometry width="68" height="30" as="geometry">
            <mxRectangle width="68" height="30" as="alternateBounds" />
          </mxGeometry>
        </mxCell>
        <mxCell id="Hg6avNIUWi83sciiPh9P-95" value="ID_Бронирования: INTEGER" style="shape=partialRectangle;html=1;whiteSpace=wrap;connectable=0;fillColor=none;top=0;left=0;bottom=0;right=0;align=left;spacingLeft=6;overflow=hidden;strokeColor=inherit;fontSize=16;" parent="Hg6avNIUWi83sciiPh9P-93" vertex="1">
          <mxGeometry x="68" width="240" height="30" as="geometry">
            <mxRectangle width="240" height="30" as="alternateBounds" />
          </mxGeometry>
        </mxCell>
        <mxCell id="Hg6avNIUWi83sciiPh9P-99" value="" style="shape=tableRow;horizontal=0;startSize=0;swimlaneHead=0;swimlaneBody=0;top=0;left=0;bottom=0;right=0;collapsible=0;dropTarget=0;fillColor=none;points=[[0,0.5],[1,0.5]];portConstraint=eastwest;strokeColor=inherit;fontSize=16;" parent="Hg6avNIUWi83sciiPh9P-92" vertex="1">
          <mxGeometry y="60" width="307.5" height="30" as="geometry" />
        </mxCell>
        <mxCell id="Hg6avNIUWi83sciiPh9P-100" value="2" style="shape=partialRectangle;html=1;whiteSpace=wrap;connectable=0;fillColor=none;top=0;left=0;bottom=0;right=0;overflow=hidden;strokeColor=inherit;fontSize=16;" parent="Hg6avNIUWi83sciiPh9P-99" vertex="1">
          <mxGeometry width="68" height="30" as="geometry">
            <mxRectangle width="68" height="30" as="alternateBounds" />
          </mxGeometry>
        </mxCell>
        <mxCell id="Hg6avNIUWi83sciiPh9P-101" value="Время брони: DATETIME" style="shape=partialRectangle;html=1;whiteSpace=wrap;connectable=0;fillColor=none;top=0;left=0;bottom=0;right=0;align=left;spacingLeft=6;overflow=hidden;strokeColor=inherit;fontSize=16;" parent="Hg6avNIUWi83sciiPh9P-99" vertex="1">
          <mxGeometry x="68" width="240" height="30" as="geometry">
            <mxRectangle width="240" height="30" as="alternateBounds" />
          </mxGeometry>
        </mxCell>
        <mxCell id="Hg6avNIUWi83sciiPh9P-147" style="edgeStyle=orthogonalEdgeStyle;rounded=0;orthogonalLoop=1;jettySize=auto;html=1;entryX=1;entryY=0.5;entryDx=0;entryDy=0;exitX=0;exitY=0.5;exitDx=0;exitDy=0;" parent="1" source="Hg6avNIUWi83sciiPh9P-83" target="Hg6avNIUWi83sciiPh9P-45" edge="1">
          <mxGeometry relative="1" as="geometry">
            <mxPoint x="530" y="140" as="sourcePoint" />
          </mxGeometry>
        </mxCell>
        <mxCell id="Hg6avNIUWi83sciiPh9P-151" style="edgeStyle=orthogonalEdgeStyle;rounded=0;orthogonalLoop=1;jettySize=auto;html=1;entryX=1;entryY=0.5;entryDx=0;entryDy=0;" parent="1" source="Hg6avNIUWi83sciiPh9P-72" target="Hg6avNIUWi83sciiPh9P-120" edge="1">
          <mxGeometry relative="1" as="geometry">
            <Array as="points">
              <mxPoint x="520" y="290" />
              <mxPoint x="520" y="235" />
            </Array>
          </mxGeometry>
        </mxCell>
        <mxCell id="Hg6avNIUWi83sciiPh9P-152" style="edgeStyle=orthogonalEdgeStyle;rounded=0;orthogonalLoop=1;jettySize=auto;html=1;entryX=1;entryY=0.5;entryDx=0;entryDy=0;" parent="1" source="Hg6avNIUWi83sciiPh9P-12" target="Hg6avNIUWi83sciiPh9P-123" edge="1">
          <mxGeometry relative="1" as="geometry">
            <Array as="points">
              <mxPoint x="480" y="395" />
              <mxPoint x="480" y="265" />
            </Array>
          </mxGeometry>
        </mxCell>
        <mxCell id="Hg6avNIUWi83sciiPh9P-153" style="edgeStyle=orthogonalEdgeStyle;rounded=0;orthogonalLoop=1;jettySize=auto;html=1;entryX=0;entryY=0.5;entryDx=0;entryDy=0;" parent="1" source="Hg6avNIUWi83sciiPh9P-2" target="Hg6avNIUWi83sciiPh9P-48" edge="1">
          <mxGeometry relative="1" as="geometry">
            <Array as="points">
              <mxPoint x="61" y="35" />
              <mxPoint x="61" y="205" />
            </Array>
          </mxGeometry>
        </mxCell>
        <mxCell id="Hg6avNIUWi83sciiPh9P-170" value="" style="shape=waypoint;sketch=0;fillStyle=solid;size=6;pointerEvents=1;points=[];fillColor=none;resizable=0;rotatable=0;perimeter=centerPerimeter;snapToPoint=1;" parent="1" vertex="1">
          <mxGeometry x="51" y="167" width="20" height="20" as="geometry" />
        </mxCell>
        <mxCell id="Hg6avNIUWi83sciiPh9P-175" value="" style="shape=waypoint;sketch=0;fillStyle=solid;size=6;pointerEvents=1;points=[];fillColor=none;resizable=0;rotatable=0;perimeter=centerPerimeter;snapToPoint=1;" parent="1" vertex="1">
          <mxGeometry x="448" y="256" width="20" height="20" as="geometry" />
        </mxCell>
        <mxCell id="Hg6avNIUWi83sciiPh9P-177" value="" style="shape=waypoint;sketch=0;fillStyle=solid;size=6;pointerEvents=1;points=[];fillColor=none;resizable=0;rotatable=0;perimeter=centerPerimeter;snapToPoint=1;" parent="1" vertex="1">
          <mxGeometry x="448" y="225" width="20" height="20" as="geometry" />
        </mxCell>
        <mxCell id="Hg6avNIUWi83sciiPh9P-178" value="" style="shape=waypoint;sketch=0;fillStyle=solid;size=6;pointerEvents=1;points=[];fillColor=none;resizable=0;rotatable=0;perimeter=centerPerimeter;snapToPoint=1;" parent="1" vertex="1">
          <mxGeometry x="444" y="166" width="20" height="20" as="geometry" />
        </mxCell>
        <mxCell id="l9HdteqBgRpV_Ue3ZMmV-1" style="edgeStyle=orthogonalEdgeStyle;rounded=0;orthogonalLoop=1;jettySize=auto;html=1;entryX=0;entryY=0.5;entryDx=0;entryDy=0;" parent="1" source="Hg6avNIUWi83sciiPh9P-22" target="Hg6avNIUWi83sciiPh9P-162" edge="1">
          <mxGeometry relative="1" as="geometry">
            <Array as="points">
              <mxPoint x="92" y="752" />
              <mxPoint x="92" y="566" />
            </Array>
          </mxGeometry>
        </mxCell>
        <mxCell id="l9HdteqBgRpV_Ue3ZMmV-18" value="Льготы" style="shape=table;startSize=30;container=1;collapsible=0;childLayout=tableLayout;fixedRows=1;rowLines=0;fontStyle=0;strokeColor=default;fontSize=16;" parent="1" vertex="1">
          <mxGeometry x="548" y="501" width="305" height="120" as="geometry" />
        </mxCell>
        <mxCell id="l9HdteqBgRpV_Ue3ZMmV-19" value="" style="shape=tableRow;horizontal=0;startSize=0;swimlaneHead=0;swimlaneBody=0;top=0;left=0;bottom=0;right=0;collapsible=0;dropTarget=0;fillColor=none;points=[[0,0.5],[1,0.5]];portConstraint=eastwest;strokeColor=inherit;fontSize=16;" parent="l9HdteqBgRpV_Ue3ZMmV-18" vertex="1">
          <mxGeometry y="30" width="305" height="30" as="geometry" />
        </mxCell>
        <mxCell id="l9HdteqBgRpV_Ue3ZMmV-20" value="1" style="shape=partialRectangle;html=1;whiteSpace=wrap;connectable=0;fillColor=none;top=0;left=0;bottom=0;right=0;overflow=hidden;pointerEvents=1;strokeColor=inherit;fontSize=16;" parent="l9HdteqBgRpV_Ue3ZMmV-19" vertex="1">
          <mxGeometry width="68" height="30" as="geometry">
            <mxRectangle width="68" height="30" as="alternateBounds" />
          </mxGeometry>
        </mxCell>
        <mxCell id="l9HdteqBgRpV_Ue3ZMmV-21" value="ID_Льготы: INTEGER" style="shape=partialRectangle;html=1;whiteSpace=wrap;connectable=0;fillColor=none;top=0;left=0;bottom=0;right=0;align=left;spacingLeft=6;overflow=hidden;strokeColor=inherit;fontSize=16;" parent="l9HdteqBgRpV_Ue3ZMmV-19" vertex="1">
          <mxGeometry x="68" width="237" height="30" as="geometry">
            <mxRectangle width="237" height="30" as="alternateBounds" />
          </mxGeometry>
        </mxCell>
        <mxCell id="l9HdteqBgRpV_Ue3ZMmV-22" value="" style="shape=tableRow;horizontal=0;startSize=0;swimlaneHead=0;swimlaneBody=0;top=0;left=0;bottom=0;right=0;collapsible=0;dropTarget=0;fillColor=none;points=[[0,0.5],[1,0.5]];portConstraint=eastwest;strokeColor=inherit;fontSize=16;" parent="l9HdteqBgRpV_Ue3ZMmV-18" vertex="1">
          <mxGeometry y="60" width="305" height="30" as="geometry" />
        </mxCell>
        <mxCell id="l9HdteqBgRpV_Ue3ZMmV-23" value="2" style="shape=partialRectangle;html=1;whiteSpace=wrap;connectable=0;fillColor=none;top=0;left=0;bottom=0;right=0;overflow=hidden;strokeColor=inherit;fontSize=16;" parent="l9HdteqBgRpV_Ue3ZMmV-22" vertex="1">
          <mxGeometry width="68" height="30" as="geometry">
            <mxRectangle width="68" height="30" as="alternateBounds" />
          </mxGeometry>
        </mxCell>
        <mxCell id="l9HdteqBgRpV_Ue3ZMmV-24" value="Название: VARCHAR(25)" style="shape=partialRectangle;html=1;whiteSpace=wrap;connectable=0;fillColor=none;top=0;left=0;bottom=0;right=0;align=left;spacingLeft=6;overflow=hidden;strokeColor=inherit;fontSize=16;" parent="l9HdteqBgRpV_Ue3ZMmV-22" vertex="1">
          <mxGeometry x="68" width="237" height="30" as="geometry">
            <mxRectangle width="237" height="30" as="alternateBounds" />
          </mxGeometry>
        </mxCell>
        <mxCell id="SDJYcs08kDQBclbEcMUW-194" value="" style="shape=tableRow;horizontal=0;startSize=0;swimlaneHead=0;swimlaneBody=0;top=0;left=0;bottom=0;right=0;collapsible=0;dropTarget=0;fillColor=none;points=[[0,0.5],[1,0.5]];portConstraint=eastwest;strokeColor=inherit;fontSize=16;" vertex="1" parent="l9HdteqBgRpV_Ue3ZMmV-18">
          <mxGeometry y="90" width="305" height="30" as="geometry" />
        </mxCell>
        <mxCell id="SDJYcs08kDQBclbEcMUW-195" value="3" style="shape=partialRectangle;html=1;whiteSpace=wrap;connectable=0;fillColor=none;top=0;left=0;bottom=0;right=0;overflow=hidden;strokeColor=inherit;fontSize=16;" vertex="1" parent="SDJYcs08kDQBclbEcMUW-194">
          <mxGeometry width="68" height="30" as="geometry">
            <mxRectangle width="68" height="30" as="alternateBounds" />
          </mxGeometry>
        </mxCell>
        <mxCell id="SDJYcs08kDQBclbEcMUW-196" value="Скидка: INTEGER" style="shape=partialRectangle;html=1;whiteSpace=wrap;connectable=0;fillColor=none;top=0;left=0;bottom=0;right=0;align=left;spacingLeft=6;overflow=hidden;strokeColor=inherit;fontSize=16;" vertex="1" parent="SDJYcs08kDQBclbEcMUW-194">
          <mxGeometry x="68" width="237" height="30" as="geometry">
            <mxRectangle width="237" height="30" as="alternateBounds" />
          </mxGeometry>
        </mxCell>
        <mxCell id="l9HdteqBgRpV_Ue3ZMmV-34" value="" style="shape=waypoint;sketch=0;fillStyle=solid;size=6;pointerEvents=1;points=[];fillColor=none;resizable=0;rotatable=0;perimeter=centerPerimeter;snapToPoint=1;" parent="1" vertex="1">
          <mxGeometry x="82" y="567" width="20" height="20" as="geometry" />
        </mxCell>
        <mxCell id="SDJYcs08kDQBclbEcMUW-1" value="Gate" style="shape=table;startSize=30;container=1;collapsible=0;childLayout=tableLayout;fixedRows=1;rowLines=0;fontStyle=0;strokeColor=default;fontSize=16;" vertex="1" parent="1">
          <mxGeometry x="1040" y="415" width="305" height="90" as="geometry" />
        </mxCell>
        <mxCell id="SDJYcs08kDQBclbEcMUW-2" value="" style="shape=tableRow;horizontal=0;startSize=0;swimlaneHead=0;swimlaneBody=0;top=0;left=0;bottom=0;right=0;collapsible=0;dropTarget=0;fillColor=none;points=[[0,0.5],[1,0.5]];portConstraint=eastwest;strokeColor=inherit;fontSize=16;" vertex="1" parent="SDJYcs08kDQBclbEcMUW-1">
          <mxGeometry y="30" width="305" height="30" as="geometry" />
        </mxCell>
        <mxCell id="SDJYcs08kDQBclbEcMUW-3" value="1" style="shape=partialRectangle;html=1;whiteSpace=wrap;connectable=0;fillColor=none;top=0;left=0;bottom=0;right=0;overflow=hidden;pointerEvents=1;strokeColor=inherit;fontSize=16;" vertex="1" parent="SDJYcs08kDQBclbEcMUW-2">
          <mxGeometry width="67" height="30" as="geometry">
            <mxRectangle width="67" height="30" as="alternateBounds" />
          </mxGeometry>
        </mxCell>
        <mxCell id="SDJYcs08kDQBclbEcMUW-4" value="ID_Gate" style="shape=partialRectangle;html=1;whiteSpace=wrap;connectable=0;fillColor=none;top=0;left=0;bottom=0;right=0;align=left;spacingLeft=6;overflow=hidden;strokeColor=inherit;fontSize=16;" vertex="1" parent="SDJYcs08kDQBclbEcMUW-2">
          <mxGeometry x="67" width="238" height="30" as="geometry">
            <mxRectangle width="238" height="30" as="alternateBounds" />
          </mxGeometry>
        </mxCell>
        <mxCell id="SDJYcs08kDQBclbEcMUW-5" value="" style="shape=tableRow;horizontal=0;startSize=0;swimlaneHead=0;swimlaneBody=0;top=0;left=0;bottom=0;right=0;collapsible=0;dropTarget=0;fillColor=none;points=[[0,0.5],[1,0.5]];portConstraint=eastwest;strokeColor=inherit;fontSize=16;" vertex="1" parent="SDJYcs08kDQBclbEcMUW-1">
          <mxGeometry y="60" width="305" height="30" as="geometry" />
        </mxCell>
        <mxCell id="SDJYcs08kDQBclbEcMUW-6" value="2" style="shape=partialRectangle;html=1;whiteSpace=wrap;connectable=0;fillColor=none;top=0;left=0;bottom=0;right=0;overflow=hidden;strokeColor=inherit;fontSize=16;" vertex="1" parent="SDJYcs08kDQBclbEcMUW-5">
          <mxGeometry width="67" height="30" as="geometry">
            <mxRectangle width="67" height="30" as="alternateBounds" />
          </mxGeometry>
        </mxCell>
        <mxCell id="SDJYcs08kDQBclbEcMUW-7" value="Название" style="shape=partialRectangle;html=1;whiteSpace=wrap;connectable=0;fillColor=none;top=0;left=0;bottom=0;right=0;align=left;spacingLeft=6;overflow=hidden;strokeColor=inherit;fontSize=16;" vertex="1" parent="SDJYcs08kDQBclbEcMUW-5">
          <mxGeometry x="67" width="238" height="30" as="geometry">
            <mxRectangle width="238" height="30" as="alternateBounds" />
          </mxGeometry>
        </mxCell>
        <mxCell id="SDJYcs08kDQBclbEcMUW-8" value="Самолет" style="shape=table;startSize=30;container=1;collapsible=0;childLayout=tableLayout;fixedRows=1;rowLines=0;fontStyle=0;strokeColor=default;fontSize=16;" vertex="1" parent="1">
          <mxGeometry x="1045" y="542" width="300" height="120" as="geometry" />
        </mxCell>
        <mxCell id="SDJYcs08kDQBclbEcMUW-9" value="" style="shape=tableRow;horizontal=0;startSize=0;swimlaneHead=0;swimlaneBody=0;top=0;left=0;bottom=0;right=0;collapsible=0;dropTarget=0;fillColor=none;points=[[0,0.5],[1,0.5]];portConstraint=eastwest;strokeColor=inherit;fontSize=16;" vertex="1" parent="SDJYcs08kDQBclbEcMUW-8">
          <mxGeometry y="30" width="300" height="30" as="geometry" />
        </mxCell>
        <mxCell id="SDJYcs08kDQBclbEcMUW-10" value="1" style="shape=partialRectangle;html=1;whiteSpace=wrap;connectable=0;fillColor=none;top=0;left=0;bottom=0;right=0;overflow=hidden;pointerEvents=1;strokeColor=inherit;fontSize=16;" vertex="1" parent="SDJYcs08kDQBclbEcMUW-9">
          <mxGeometry width="66" height="30" as="geometry">
            <mxRectangle width="66" height="30" as="alternateBounds" />
          </mxGeometry>
        </mxCell>
        <mxCell id="SDJYcs08kDQBclbEcMUW-11" value="ID_Самолета" style="shape=partialRectangle;html=1;whiteSpace=wrap;connectable=0;fillColor=none;top=0;left=0;bottom=0;right=0;align=left;spacingLeft=6;overflow=hidden;strokeColor=inherit;fontSize=16;" vertex="1" parent="SDJYcs08kDQBclbEcMUW-9">
          <mxGeometry x="66" width="234" height="30" as="geometry">
            <mxRectangle width="234" height="30" as="alternateBounds" />
          </mxGeometry>
        </mxCell>
        <mxCell id="SDJYcs08kDQBclbEcMUW-12" value="" style="shape=tableRow;horizontal=0;startSize=0;swimlaneHead=0;swimlaneBody=0;top=0;left=0;bottom=0;right=0;collapsible=0;dropTarget=0;fillColor=none;points=[[0,0.5],[1,0.5]];portConstraint=eastwest;strokeColor=inherit;fontSize=16;" vertex="1" parent="SDJYcs08kDQBclbEcMUW-8">
          <mxGeometry y="60" width="300" height="30" as="geometry" />
        </mxCell>
        <mxCell id="SDJYcs08kDQBclbEcMUW-13" value="2" style="shape=partialRectangle;html=1;whiteSpace=wrap;connectable=0;fillColor=none;top=0;left=0;bottom=0;right=0;overflow=hidden;strokeColor=inherit;fontSize=16;" vertex="1" parent="SDJYcs08kDQBclbEcMUW-12">
          <mxGeometry width="66" height="30" as="geometry">
            <mxRectangle width="66" height="30" as="alternateBounds" />
          </mxGeometry>
        </mxCell>
        <mxCell id="SDJYcs08kDQBclbEcMUW-14" value="Модель" style="shape=partialRectangle;html=1;whiteSpace=wrap;connectable=0;fillColor=none;top=0;left=0;bottom=0;right=0;align=left;spacingLeft=6;overflow=hidden;strokeColor=inherit;fontSize=16;" vertex="1" parent="SDJYcs08kDQBclbEcMUW-12">
          <mxGeometry x="66" width="234" height="30" as="geometry">
            <mxRectangle width="234" height="30" as="alternateBounds" />
          </mxGeometry>
        </mxCell>
        <mxCell id="SDJYcs08kDQBclbEcMUW-15" value="" style="shape=tableRow;horizontal=0;startSize=0;swimlaneHead=0;swimlaneBody=0;top=0;left=0;bottom=0;right=0;collapsible=0;dropTarget=0;fillColor=none;points=[[0,0.5],[1,0.5]];portConstraint=eastwest;strokeColor=inherit;fontSize=16;" vertex="1" parent="SDJYcs08kDQBclbEcMUW-8">
          <mxGeometry y="90" width="300" height="30" as="geometry" />
        </mxCell>
        <mxCell id="SDJYcs08kDQBclbEcMUW-16" value="3" style="shape=partialRectangle;html=1;whiteSpace=wrap;connectable=0;fillColor=none;top=0;left=0;bottom=0;right=0;overflow=hidden;strokeColor=inherit;fontSize=16;" vertex="1" parent="SDJYcs08kDQBclbEcMUW-15">
          <mxGeometry width="66" height="30" as="geometry">
            <mxRectangle width="66" height="30" as="alternateBounds" />
          </mxGeometry>
        </mxCell>
        <mxCell id="SDJYcs08kDQBclbEcMUW-17" value="Вместимость" style="shape=partialRectangle;html=1;whiteSpace=wrap;connectable=0;fillColor=none;top=0;left=0;bottom=0;right=0;align=left;spacingLeft=6;overflow=hidden;strokeColor=inherit;fontSize=16;" vertex="1" parent="SDJYcs08kDQBclbEcMUW-15">
          <mxGeometry x="66" width="234" height="30" as="geometry">
            <mxRectangle width="234" height="30" as="alternateBounds" />
          </mxGeometry>
        </mxCell>
        <mxCell id="SDJYcs08kDQBclbEcMUW-141" style="edgeStyle=orthogonalEdgeStyle;rounded=0;orthogonalLoop=1;jettySize=auto;html=1;" edge="1" parent="1" source="SDJYcs08kDQBclbEcMUW-18" target="SDJYcs08kDQBclbEcMUW-98">
          <mxGeometry relative="1" as="geometry" />
        </mxCell>
        <mxCell id="SDJYcs08kDQBclbEcMUW-18" value="Пассажиры" style="shape=table;startSize=30;container=1;collapsible=0;childLayout=tableLayout;fixedRows=1;rowLines=0;fontStyle=0;strokeColor=default;fontSize=16;" vertex="1" parent="1">
          <mxGeometry x="1511" y="688" width="305" height="210" as="geometry" />
        </mxCell>
        <mxCell id="SDJYcs08kDQBclbEcMUW-19" value="" style="shape=tableRow;horizontal=0;startSize=0;swimlaneHead=0;swimlaneBody=0;top=0;left=0;bottom=0;right=0;collapsible=0;dropTarget=0;fillColor=none;points=[[0,0.5],[1,0.5]];portConstraint=eastwest;strokeColor=inherit;fontSize=16;" vertex="1" parent="SDJYcs08kDQBclbEcMUW-18">
          <mxGeometry y="30" width="305" height="30" as="geometry" />
        </mxCell>
        <mxCell id="SDJYcs08kDQBclbEcMUW-20" value="1" style="shape=partialRectangle;html=1;whiteSpace=wrap;connectable=0;fillColor=none;top=0;left=0;bottom=0;right=0;overflow=hidden;pointerEvents=1;strokeColor=inherit;fontSize=16;" vertex="1" parent="SDJYcs08kDQBclbEcMUW-19">
          <mxGeometry width="69" height="30" as="geometry">
            <mxRectangle width="69" height="30" as="alternateBounds" />
          </mxGeometry>
        </mxCell>
        <mxCell id="SDJYcs08kDQBclbEcMUW-21" value="ID_Пассажира" style="shape=partialRectangle;html=1;whiteSpace=wrap;connectable=0;fillColor=none;top=0;left=0;bottom=0;right=0;align=left;spacingLeft=6;overflow=hidden;strokeColor=inherit;fontSize=16;" vertex="1" parent="SDJYcs08kDQBclbEcMUW-19">
          <mxGeometry x="69" width="236" height="30" as="geometry">
            <mxRectangle width="236" height="30" as="alternateBounds" />
          </mxGeometry>
        </mxCell>
        <mxCell id="SDJYcs08kDQBclbEcMUW-22" value="" style="shape=tableRow;horizontal=0;startSize=0;swimlaneHead=0;swimlaneBody=0;top=0;left=0;bottom=0;right=0;collapsible=0;dropTarget=0;fillColor=none;points=[[0,0.5],[1,0.5]];portConstraint=eastwest;strokeColor=inherit;fontSize=16;" vertex="1" parent="SDJYcs08kDQBclbEcMUW-18">
          <mxGeometry y="60" width="305" height="30" as="geometry" />
        </mxCell>
        <mxCell id="SDJYcs08kDQBclbEcMUW-23" value="2" style="shape=partialRectangle;html=1;whiteSpace=wrap;connectable=0;fillColor=none;top=0;left=0;bottom=0;right=0;overflow=hidden;strokeColor=inherit;fontSize=16;" vertex="1" parent="SDJYcs08kDQBclbEcMUW-22">
          <mxGeometry width="69" height="30" as="geometry">
            <mxRectangle width="69" height="30" as="alternateBounds" />
          </mxGeometry>
        </mxCell>
        <mxCell id="SDJYcs08kDQBclbEcMUW-24" value="Фамилия" style="shape=partialRectangle;html=1;whiteSpace=wrap;connectable=0;fillColor=none;top=0;left=0;bottom=0;right=0;align=left;spacingLeft=6;overflow=hidden;strokeColor=inherit;fontSize=16;" vertex="1" parent="SDJYcs08kDQBclbEcMUW-22">
          <mxGeometry x="69" width="236" height="30" as="geometry">
            <mxRectangle width="236" height="30" as="alternateBounds" />
          </mxGeometry>
        </mxCell>
        <mxCell id="SDJYcs08kDQBclbEcMUW-25" value="" style="shape=tableRow;horizontal=0;startSize=0;swimlaneHead=0;swimlaneBody=0;top=0;left=0;bottom=0;right=0;collapsible=0;dropTarget=0;fillColor=none;points=[[0,0.5],[1,0.5]];portConstraint=eastwest;strokeColor=inherit;fontSize=16;" vertex="1" parent="SDJYcs08kDQBclbEcMUW-18">
          <mxGeometry y="90" width="305" height="30" as="geometry" />
        </mxCell>
        <mxCell id="SDJYcs08kDQBclbEcMUW-26" value="3" style="shape=partialRectangle;html=1;whiteSpace=wrap;connectable=0;fillColor=none;top=0;left=0;bottom=0;right=0;overflow=hidden;strokeColor=inherit;fontSize=16;" vertex="1" parent="SDJYcs08kDQBclbEcMUW-25">
          <mxGeometry width="69" height="30" as="geometry">
            <mxRectangle width="69" height="30" as="alternateBounds" />
          </mxGeometry>
        </mxCell>
        <mxCell id="SDJYcs08kDQBclbEcMUW-27" value="Имя" style="shape=partialRectangle;html=1;whiteSpace=wrap;connectable=0;fillColor=none;top=0;left=0;bottom=0;right=0;align=left;spacingLeft=6;overflow=hidden;strokeColor=inherit;fontSize=16;" vertex="1" parent="SDJYcs08kDQBclbEcMUW-25">
          <mxGeometry x="69" width="236" height="30" as="geometry">
            <mxRectangle width="236" height="30" as="alternateBounds" />
          </mxGeometry>
        </mxCell>
        <mxCell id="SDJYcs08kDQBclbEcMUW-28" value="" style="shape=tableRow;horizontal=0;startSize=0;swimlaneHead=0;swimlaneBody=0;top=0;left=0;bottom=0;right=0;collapsible=0;dropTarget=0;fillColor=none;points=[[0,0.5],[1,0.5]];portConstraint=eastwest;strokeColor=inherit;fontSize=16;" vertex="1" parent="SDJYcs08kDQBclbEcMUW-18">
          <mxGeometry y="120" width="305" height="30" as="geometry" />
        </mxCell>
        <mxCell id="SDJYcs08kDQBclbEcMUW-29" value="4" style="shape=partialRectangle;html=1;whiteSpace=wrap;connectable=0;fillColor=none;top=0;left=0;bottom=0;right=0;overflow=hidden;strokeColor=inherit;fontSize=16;" vertex="1" parent="SDJYcs08kDQBclbEcMUW-28">
          <mxGeometry width="69" height="30" as="geometry">
            <mxRectangle width="69" height="30" as="alternateBounds" />
          </mxGeometry>
        </mxCell>
        <mxCell id="SDJYcs08kDQBclbEcMUW-30" value="Отчество" style="shape=partialRectangle;html=1;whiteSpace=wrap;connectable=0;fillColor=none;top=0;left=0;bottom=0;right=0;align=left;spacingLeft=6;overflow=hidden;strokeColor=inherit;fontSize=16;" vertex="1" parent="SDJYcs08kDQBclbEcMUW-28">
          <mxGeometry x="69" width="236" height="30" as="geometry">
            <mxRectangle width="236" height="30" as="alternateBounds" />
          </mxGeometry>
        </mxCell>
        <mxCell id="SDJYcs08kDQBclbEcMUW-31" value="" style="shape=tableRow;horizontal=0;startSize=0;swimlaneHead=0;swimlaneBody=0;top=0;left=0;bottom=0;right=0;collapsible=0;dropTarget=0;fillColor=none;points=[[0,0.5],[1,0.5]];portConstraint=eastwest;strokeColor=inherit;fontSize=16;" vertex="1" parent="SDJYcs08kDQBclbEcMUW-18">
          <mxGeometry y="150" width="305" height="30" as="geometry" />
        </mxCell>
        <mxCell id="SDJYcs08kDQBclbEcMUW-32" value="5" style="shape=partialRectangle;html=1;whiteSpace=wrap;connectable=0;fillColor=none;top=0;left=0;bottom=0;right=0;overflow=hidden;strokeColor=inherit;fontSize=16;" vertex="1" parent="SDJYcs08kDQBclbEcMUW-31">
          <mxGeometry width="69" height="30" as="geometry">
            <mxRectangle width="69" height="30" as="alternateBounds" />
          </mxGeometry>
        </mxCell>
        <mxCell id="SDJYcs08kDQBclbEcMUW-33" value="Телефон" style="shape=partialRectangle;html=1;whiteSpace=wrap;connectable=0;fillColor=none;top=0;left=0;bottom=0;right=0;align=left;spacingLeft=6;overflow=hidden;strokeColor=inherit;fontSize=16;" vertex="1" parent="SDJYcs08kDQBclbEcMUW-31">
          <mxGeometry x="69" width="236" height="30" as="geometry">
            <mxRectangle width="236" height="30" as="alternateBounds" />
          </mxGeometry>
        </mxCell>
        <mxCell id="SDJYcs08kDQBclbEcMUW-34" value="" style="shape=tableRow;horizontal=0;startSize=0;swimlaneHead=0;swimlaneBody=0;top=0;left=0;bottom=0;right=0;collapsible=0;dropTarget=0;fillColor=none;points=[[0,0.5],[1,0.5]];portConstraint=eastwest;strokeColor=inherit;fontSize=16;" vertex="1" parent="SDJYcs08kDQBclbEcMUW-18">
          <mxGeometry y="180" width="305" height="30" as="geometry" />
        </mxCell>
        <mxCell id="SDJYcs08kDQBclbEcMUW-35" value="6" style="shape=partialRectangle;html=1;whiteSpace=wrap;connectable=0;fillColor=none;top=0;left=0;bottom=0;right=0;overflow=hidden;strokeColor=inherit;fontSize=16;" vertex="1" parent="SDJYcs08kDQBclbEcMUW-34">
          <mxGeometry width="69" height="30" as="geometry">
            <mxRectangle width="69" height="30" as="alternateBounds" />
          </mxGeometry>
        </mxCell>
        <mxCell id="SDJYcs08kDQBclbEcMUW-36" value="Номер паспорта" style="shape=partialRectangle;html=1;whiteSpace=wrap;connectable=0;fillColor=none;top=0;left=0;bottom=0;right=0;align=left;spacingLeft=6;overflow=hidden;strokeColor=inherit;fontSize=16;" vertex="1" parent="SDJYcs08kDQBclbEcMUW-34">
          <mxGeometry x="69" width="236" height="30" as="geometry">
            <mxRectangle width="236" height="30" as="alternateBounds" />
          </mxGeometry>
        </mxCell>
        <mxCell id="SDJYcs08kDQBclbEcMUW-37" value="Билеты" style="shape=table;startSize=30;container=1;collapsible=0;childLayout=tableLayout;fixedRows=1;rowLines=0;fontStyle=0;strokeColor=default;fontSize=16;" vertex="1" parent="1">
          <mxGeometry x="1045" y="715" width="307.5" height="270" as="geometry" />
        </mxCell>
        <mxCell id="SDJYcs08kDQBclbEcMUW-38" value="" style="shape=tableRow;horizontal=0;startSize=0;swimlaneHead=0;swimlaneBody=0;top=0;left=0;bottom=0;right=0;collapsible=0;dropTarget=0;fillColor=none;points=[[0,0.5],[1,0.5]];portConstraint=eastwest;strokeColor=inherit;fontSize=16;" vertex="1" parent="SDJYcs08kDQBclbEcMUW-37">
          <mxGeometry y="30" width="307.5" height="30" as="geometry" />
        </mxCell>
        <mxCell id="SDJYcs08kDQBclbEcMUW-39" value="1" style="shape=partialRectangle;html=1;whiteSpace=wrap;connectable=0;fillColor=none;top=0;left=0;bottom=0;right=0;overflow=hidden;pointerEvents=1;strokeColor=inherit;fontSize=16;" vertex="1" parent="SDJYcs08kDQBclbEcMUW-38">
          <mxGeometry width="69" height="30" as="geometry">
            <mxRectangle width="69" height="30" as="alternateBounds" />
          </mxGeometry>
        </mxCell>
        <mxCell id="SDJYcs08kDQBclbEcMUW-40" value="ID_Билета" style="shape=partialRectangle;html=1;whiteSpace=wrap;connectable=0;fillColor=none;top=0;left=0;bottom=0;right=0;align=left;spacingLeft=6;overflow=hidden;strokeColor=inherit;fontSize=16;" vertex="1" parent="SDJYcs08kDQBclbEcMUW-38">
          <mxGeometry x="69" width="239" height="30" as="geometry">
            <mxRectangle width="239" height="30" as="alternateBounds" />
          </mxGeometry>
        </mxCell>
        <mxCell id="SDJYcs08kDQBclbEcMUW-41" value="" style="shape=tableRow;horizontal=0;startSize=0;swimlaneHead=0;swimlaneBody=0;top=0;left=0;bottom=0;right=0;collapsible=0;dropTarget=0;fillColor=none;points=[[0,0.5],[1,0.5]];portConstraint=eastwest;strokeColor=inherit;fontSize=16;" vertex="1" parent="SDJYcs08kDQBclbEcMUW-37">
          <mxGeometry y="60" width="307.5" height="30" as="geometry" />
        </mxCell>
        <mxCell id="SDJYcs08kDQBclbEcMUW-42" value="2" style="shape=partialRectangle;html=1;whiteSpace=wrap;connectable=0;fillColor=none;top=0;left=0;bottom=0;right=0;overflow=hidden;strokeColor=inherit;fontSize=16;" vertex="1" parent="SDJYcs08kDQBclbEcMUW-41">
          <mxGeometry width="69" height="30" as="geometry">
            <mxRectangle width="69" height="30" as="alternateBounds" />
          </mxGeometry>
        </mxCell>
        <mxCell id="SDJYcs08kDQBclbEcMUW-43" value="ID_Рейса" style="shape=partialRectangle;html=1;whiteSpace=wrap;connectable=0;fillColor=none;top=0;left=0;bottom=0;right=0;align=left;spacingLeft=6;overflow=hidden;strokeColor=inherit;fontSize=16;" vertex="1" parent="SDJYcs08kDQBclbEcMUW-41">
          <mxGeometry x="69" width="239" height="30" as="geometry">
            <mxRectangle width="239" height="30" as="alternateBounds" />
          </mxGeometry>
        </mxCell>
        <mxCell id="SDJYcs08kDQBclbEcMUW-44" value="" style="shape=tableRow;horizontal=0;startSize=0;swimlaneHead=0;swimlaneBody=0;top=0;left=0;bottom=0;right=0;collapsible=0;dropTarget=0;fillColor=none;points=[[0,0.5],[1,0.5]];portConstraint=eastwest;strokeColor=inherit;fontSize=16;" vertex="1" parent="SDJYcs08kDQBclbEcMUW-37">
          <mxGeometry y="90" width="307.5" height="30" as="geometry" />
        </mxCell>
        <mxCell id="SDJYcs08kDQBclbEcMUW-45" value="3" style="shape=partialRectangle;html=1;whiteSpace=wrap;connectable=0;fillColor=none;top=0;left=0;bottom=0;right=0;overflow=hidden;strokeColor=inherit;fontSize=16;" vertex="1" parent="SDJYcs08kDQBclbEcMUW-44">
          <mxGeometry width="69" height="30" as="geometry">
            <mxRectangle width="69" height="30" as="alternateBounds" />
          </mxGeometry>
        </mxCell>
        <mxCell id="SDJYcs08kDQBclbEcMUW-46" value="Цена" style="shape=partialRectangle;html=1;whiteSpace=wrap;connectable=0;fillColor=none;top=0;left=0;bottom=0;right=0;align=left;spacingLeft=6;overflow=hidden;strokeColor=inherit;fontSize=16;" vertex="1" parent="SDJYcs08kDQBclbEcMUW-44">
          <mxGeometry x="69" width="239" height="30" as="geometry">
            <mxRectangle width="239" height="30" as="alternateBounds" />
          </mxGeometry>
        </mxCell>
        <mxCell id="SDJYcs08kDQBclbEcMUW-47" value="" style="shape=tableRow;horizontal=0;startSize=0;swimlaneHead=0;swimlaneBody=0;top=0;left=0;bottom=0;right=0;collapsible=0;dropTarget=0;fillColor=none;points=[[0,0.5],[1,0.5]];portConstraint=eastwest;strokeColor=inherit;fontSize=16;" vertex="1" parent="SDJYcs08kDQBclbEcMUW-37">
          <mxGeometry y="120" width="307.5" height="30" as="geometry" />
        </mxCell>
        <mxCell id="SDJYcs08kDQBclbEcMUW-48" value="4" style="shape=partialRectangle;html=1;whiteSpace=wrap;connectable=0;fillColor=none;top=0;left=0;bottom=0;right=0;overflow=hidden;strokeColor=inherit;fontSize=16;" vertex="1" parent="SDJYcs08kDQBclbEcMUW-47">
          <mxGeometry width="69" height="30" as="geometry">
            <mxRectangle width="69" height="30" as="alternateBounds" />
          </mxGeometry>
        </mxCell>
        <mxCell id="SDJYcs08kDQBclbEcMUW-49" value="Место" style="shape=partialRectangle;html=1;whiteSpace=wrap;connectable=0;fillColor=none;top=0;left=0;bottom=0;right=0;align=left;spacingLeft=6;overflow=hidden;strokeColor=inherit;fontSize=16;" vertex="1" parent="SDJYcs08kDQBclbEcMUW-47">
          <mxGeometry x="69" width="239" height="30" as="geometry">
            <mxRectangle width="239" height="30" as="alternateBounds" />
          </mxGeometry>
        </mxCell>
        <mxCell id="SDJYcs08kDQBclbEcMUW-50" value="" style="shape=tableRow;horizontal=0;startSize=0;swimlaneHead=0;swimlaneBody=0;top=0;left=0;bottom=0;right=0;collapsible=0;dropTarget=0;fillColor=none;points=[[0,0.5],[1,0.5]];portConstraint=eastwest;strokeColor=inherit;fontSize=16;" vertex="1" parent="SDJYcs08kDQBclbEcMUW-37">
          <mxGeometry y="150" width="307.5" height="30" as="geometry" />
        </mxCell>
        <mxCell id="SDJYcs08kDQBclbEcMUW-51" value="5" style="shape=partialRectangle;html=1;whiteSpace=wrap;connectable=0;fillColor=none;top=0;left=0;bottom=0;right=0;overflow=hidden;strokeColor=inherit;fontSize=16;" vertex="1" parent="SDJYcs08kDQBclbEcMUW-50">
          <mxGeometry width="69" height="30" as="geometry">
            <mxRectangle width="69" height="30" as="alternateBounds" />
          </mxGeometry>
        </mxCell>
        <mxCell id="SDJYcs08kDQBclbEcMUW-52" value="ID_Пассажира" style="shape=partialRectangle;html=1;whiteSpace=wrap;connectable=0;fillColor=none;top=0;left=0;bottom=0;right=0;align=left;spacingLeft=6;overflow=hidden;strokeColor=inherit;fontSize=16;" vertex="1" parent="SDJYcs08kDQBclbEcMUW-50">
          <mxGeometry x="69" width="239" height="30" as="geometry">
            <mxRectangle width="239" height="30" as="alternateBounds" />
          </mxGeometry>
        </mxCell>
        <mxCell id="SDJYcs08kDQBclbEcMUW-53" value="" style="shape=tableRow;horizontal=0;startSize=0;swimlaneHead=0;swimlaneBody=0;top=0;left=0;bottom=0;right=0;collapsible=0;dropTarget=0;fillColor=none;points=[[0,0.5],[1,0.5]];portConstraint=eastwest;strokeColor=inherit;fontSize=16;" vertex="1" parent="SDJYcs08kDQBclbEcMUW-37">
          <mxGeometry y="180" width="307.5" height="30" as="geometry" />
        </mxCell>
        <mxCell id="SDJYcs08kDQBclbEcMUW-54" value="6" style="shape=partialRectangle;html=1;whiteSpace=wrap;connectable=0;fillColor=none;top=0;left=0;bottom=0;right=0;overflow=hidden;strokeColor=inherit;fontSize=16;" vertex="1" parent="SDJYcs08kDQBclbEcMUW-53">
          <mxGeometry width="69" height="30" as="geometry">
            <mxRectangle width="69" height="30" as="alternateBounds" />
          </mxGeometry>
        </mxCell>
        <mxCell id="SDJYcs08kDQBclbEcMUW-55" value="Оплачен" style="shape=partialRectangle;html=1;whiteSpace=wrap;connectable=0;fillColor=none;top=0;left=0;bottom=0;right=0;align=left;spacingLeft=6;overflow=hidden;strokeColor=inherit;fontSize=16;" vertex="1" parent="SDJYcs08kDQBclbEcMUW-53">
          <mxGeometry x="69" width="239" height="30" as="geometry">
            <mxRectangle width="239" height="30" as="alternateBounds" />
          </mxGeometry>
        </mxCell>
        <mxCell id="SDJYcs08kDQBclbEcMUW-56" value="" style="shape=tableRow;horizontal=0;startSize=0;swimlaneHead=0;swimlaneBody=0;top=0;left=0;bottom=0;right=0;collapsible=0;dropTarget=0;fillColor=none;points=[[0,0.5],[1,0.5]];portConstraint=eastwest;strokeColor=inherit;fontSize=16;" vertex="1" parent="SDJYcs08kDQBclbEcMUW-37">
          <mxGeometry y="210" width="307.5" height="30" as="geometry" />
        </mxCell>
        <mxCell id="SDJYcs08kDQBclbEcMUW-57" value="7" style="shape=partialRectangle;html=1;whiteSpace=wrap;connectable=0;fillColor=none;top=0;left=0;bottom=0;right=0;overflow=hidden;strokeColor=inherit;fontSize=16;" vertex="1" parent="SDJYcs08kDQBclbEcMUW-56">
          <mxGeometry width="69" height="30" as="geometry">
            <mxRectangle width="69" height="30" as="alternateBounds" />
          </mxGeometry>
        </mxCell>
        <mxCell id="SDJYcs08kDQBclbEcMUW-58" value="ID_Льготы" style="shape=partialRectangle;html=1;whiteSpace=wrap;connectable=0;fillColor=none;top=0;left=0;bottom=0;right=0;align=left;spacingLeft=6;overflow=hidden;strokeColor=inherit;fontSize=16;" vertex="1" parent="SDJYcs08kDQBclbEcMUW-56">
          <mxGeometry x="69" width="239" height="30" as="geometry">
            <mxRectangle width="239" height="30" as="alternateBounds" />
          </mxGeometry>
        </mxCell>
        <mxCell id="SDJYcs08kDQBclbEcMUW-226" value="" style="shape=tableRow;horizontal=0;startSize=0;swimlaneHead=0;swimlaneBody=0;top=0;left=0;bottom=0;right=0;collapsible=0;dropTarget=0;fillColor=none;points=[[0,0.5],[1,0.5]];portConstraint=eastwest;strokeColor=inherit;fontSize=16;" vertex="1" parent="SDJYcs08kDQBclbEcMUW-37">
          <mxGeometry y="240" width="307.5" height="30" as="geometry" />
        </mxCell>
        <mxCell id="SDJYcs08kDQBclbEcMUW-227" value="8" style="shape=partialRectangle;html=1;whiteSpace=wrap;connectable=0;fillColor=none;top=0;left=0;bottom=0;right=0;overflow=hidden;strokeColor=inherit;fontSize=16;" vertex="1" parent="SDJYcs08kDQBclbEcMUW-226">
          <mxGeometry width="69" height="30" as="geometry">
            <mxRectangle width="69" height="30" as="alternateBounds" />
          </mxGeometry>
        </mxCell>
        <mxCell id="SDJYcs08kDQBclbEcMUW-228" value="ID_Бронирования" style="shape=partialRectangle;html=1;whiteSpace=wrap;connectable=0;fillColor=none;top=0;left=0;bottom=0;right=0;align=left;spacingLeft=6;overflow=hidden;strokeColor=inherit;fontSize=16;" vertex="1" parent="SDJYcs08kDQBclbEcMUW-226">
          <mxGeometry x="69" width="239" height="30" as="geometry">
            <mxRectangle width="239" height="30" as="alternateBounds" />
          </mxGeometry>
        </mxCell>
        <mxCell id="SDJYcs08kDQBclbEcMUW-59" value="Рейс" style="shape=table;startSize=30;container=1;collapsible=0;childLayout=tableLayout;fixedRows=1;rowLines=0;fontStyle=0;strokeColor=default;fontSize=16;" vertex="1" parent="1">
          <mxGeometry x="1503" y="354" width="310" height="270" as="geometry" />
        </mxCell>
        <mxCell id="SDJYcs08kDQBclbEcMUW-60" value="" style="shape=tableRow;horizontal=0;startSize=0;swimlaneHead=0;swimlaneBody=0;top=0;left=0;bottom=0;right=0;collapsible=0;dropTarget=0;fillColor=none;points=[[0,0.5],[1,0.5]];portConstraint=eastwest;strokeColor=inherit;fontSize=16;" vertex="1" parent="SDJYcs08kDQBclbEcMUW-59">
          <mxGeometry y="30" width="310" height="30" as="geometry" />
        </mxCell>
        <mxCell id="SDJYcs08kDQBclbEcMUW-61" value="1" style="shape=partialRectangle;html=1;whiteSpace=wrap;connectable=0;fillColor=none;top=0;left=0;bottom=0;right=0;overflow=hidden;pointerEvents=1;strokeColor=inherit;fontSize=16;" vertex="1" parent="SDJYcs08kDQBclbEcMUW-60">
          <mxGeometry width="68" height="30" as="geometry">
            <mxRectangle width="68" height="30" as="alternateBounds" />
          </mxGeometry>
        </mxCell>
        <mxCell id="SDJYcs08kDQBclbEcMUW-62" value="ID_Рейса" style="shape=partialRectangle;html=1;whiteSpace=wrap;connectable=0;fillColor=none;top=0;left=0;bottom=0;right=0;align=left;spacingLeft=6;overflow=hidden;strokeColor=inherit;fontSize=16;" vertex="1" parent="SDJYcs08kDQBclbEcMUW-60">
          <mxGeometry x="68" width="242" height="30" as="geometry">
            <mxRectangle width="242" height="30" as="alternateBounds" />
          </mxGeometry>
        </mxCell>
        <mxCell id="SDJYcs08kDQBclbEcMUW-63" value="" style="shape=tableRow;horizontal=0;startSize=0;swimlaneHead=0;swimlaneBody=0;top=0;left=0;bottom=0;right=0;collapsible=0;dropTarget=0;fillColor=none;points=[[0,0.5],[1,0.5]];portConstraint=eastwest;strokeColor=inherit;fontSize=16;" vertex="1" parent="SDJYcs08kDQBclbEcMUW-59">
          <mxGeometry y="60" width="310" height="30" as="geometry" />
        </mxCell>
        <mxCell id="SDJYcs08kDQBclbEcMUW-64" value="2" style="shape=partialRectangle;html=1;whiteSpace=wrap;connectable=0;fillColor=none;top=0;left=0;bottom=0;right=0;overflow=hidden;strokeColor=inherit;fontSize=16;" vertex="1" parent="SDJYcs08kDQBclbEcMUW-63">
          <mxGeometry width="68" height="30" as="geometry">
            <mxRectangle width="68" height="30" as="alternateBounds" />
          </mxGeometry>
        </mxCell>
        <mxCell id="SDJYcs08kDQBclbEcMUW-65" value="ID_Авиакомпании" style="shape=partialRectangle;html=1;whiteSpace=wrap;connectable=0;fillColor=none;top=0;left=0;bottom=0;right=0;align=left;spacingLeft=6;overflow=hidden;strokeColor=inherit;fontSize=16;" vertex="1" parent="SDJYcs08kDQBclbEcMUW-63">
          <mxGeometry x="68" width="242" height="30" as="geometry">
            <mxRectangle width="242" height="30" as="alternateBounds" />
          </mxGeometry>
        </mxCell>
        <mxCell id="SDJYcs08kDQBclbEcMUW-66" value="" style="shape=tableRow;horizontal=0;startSize=0;swimlaneHead=0;swimlaneBody=0;top=0;left=0;bottom=0;right=0;collapsible=0;dropTarget=0;fillColor=none;points=[[0,0.5],[1,0.5]];portConstraint=eastwest;strokeColor=inherit;fontSize=16;" vertex="1" parent="SDJYcs08kDQBclbEcMUW-59">
          <mxGeometry y="90" width="310" height="30" as="geometry" />
        </mxCell>
        <mxCell id="SDJYcs08kDQBclbEcMUW-67" value="3" style="shape=partialRectangle;html=1;whiteSpace=wrap;connectable=0;fillColor=none;top=0;left=0;bottom=0;right=0;overflow=hidden;strokeColor=inherit;fontSize=16;" vertex="1" parent="SDJYcs08kDQBclbEcMUW-66">
          <mxGeometry width="68" height="30" as="geometry">
            <mxRectangle width="68" height="30" as="alternateBounds" />
          </mxGeometry>
        </mxCell>
        <mxCell id="SDJYcs08kDQBclbEcMUW-68" value="ID_Gate" style="shape=partialRectangle;html=1;whiteSpace=wrap;connectable=0;fillColor=none;top=0;left=0;bottom=0;right=0;align=left;spacingLeft=6;overflow=hidden;strokeColor=inherit;fontSize=16;" vertex="1" parent="SDJYcs08kDQBclbEcMUW-66">
          <mxGeometry x="68" width="242" height="30" as="geometry">
            <mxRectangle width="242" height="30" as="alternateBounds" />
          </mxGeometry>
        </mxCell>
        <mxCell id="SDJYcs08kDQBclbEcMUW-69" value="" style="shape=tableRow;horizontal=0;startSize=0;swimlaneHead=0;swimlaneBody=0;top=0;left=0;bottom=0;right=0;collapsible=0;dropTarget=0;fillColor=none;points=[[0,0.5],[1,0.5]];portConstraint=eastwest;strokeColor=inherit;fontSize=16;" vertex="1" parent="SDJYcs08kDQBclbEcMUW-59">
          <mxGeometry y="120" width="310" height="30" as="geometry" />
        </mxCell>
        <mxCell id="SDJYcs08kDQBclbEcMUW-70" value="4" style="shape=partialRectangle;html=1;whiteSpace=wrap;connectable=0;fillColor=none;top=0;left=0;bottom=0;right=0;overflow=hidden;strokeColor=inherit;fontSize=16;" vertex="1" parent="SDJYcs08kDQBclbEcMUW-69">
          <mxGeometry width="68" height="30" as="geometry">
            <mxRectangle width="68" height="30" as="alternateBounds" />
          </mxGeometry>
        </mxCell>
        <mxCell id="SDJYcs08kDQBclbEcMUW-71" value="ID_Полосы" style="shape=partialRectangle;html=1;whiteSpace=wrap;connectable=0;fillColor=none;top=0;left=0;bottom=0;right=0;align=left;spacingLeft=6;overflow=hidden;strokeColor=inherit;fontSize=16;" vertex="1" parent="SDJYcs08kDQBclbEcMUW-69">
          <mxGeometry x="68" width="242" height="30" as="geometry">
            <mxRectangle width="242" height="30" as="alternateBounds" />
          </mxGeometry>
        </mxCell>
        <mxCell id="SDJYcs08kDQBclbEcMUW-72" value="" style="shape=tableRow;horizontal=0;startSize=0;swimlaneHead=0;swimlaneBody=0;top=0;left=0;bottom=0;right=0;collapsible=0;dropTarget=0;fillColor=none;points=[[0,0.5],[1,0.5]];portConstraint=eastwest;strokeColor=inherit;fontSize=16;" vertex="1" parent="SDJYcs08kDQBclbEcMUW-59">
          <mxGeometry y="150" width="310" height="30" as="geometry" />
        </mxCell>
        <mxCell id="SDJYcs08kDQBclbEcMUW-73" value="5" style="shape=partialRectangle;html=1;whiteSpace=wrap;connectable=0;fillColor=none;top=0;left=0;bottom=0;right=0;overflow=hidden;strokeColor=inherit;fontSize=16;" vertex="1" parent="SDJYcs08kDQBclbEcMUW-72">
          <mxGeometry width="68" height="30" as="geometry">
            <mxRectangle width="68" height="30" as="alternateBounds" />
          </mxGeometry>
        </mxCell>
        <mxCell id="SDJYcs08kDQBclbEcMUW-74" value="ID_Самолета" style="shape=partialRectangle;html=1;whiteSpace=wrap;connectable=0;fillColor=none;top=0;left=0;bottom=0;right=0;align=left;spacingLeft=6;overflow=hidden;strokeColor=inherit;fontSize=16;" vertex="1" parent="SDJYcs08kDQBclbEcMUW-72">
          <mxGeometry x="68" width="242" height="30" as="geometry">
            <mxRectangle width="242" height="30" as="alternateBounds" />
          </mxGeometry>
        </mxCell>
        <mxCell id="SDJYcs08kDQBclbEcMUW-75" value="" style="shape=tableRow;horizontal=0;startSize=0;swimlaneHead=0;swimlaneBody=0;top=0;left=0;bottom=0;right=0;collapsible=0;dropTarget=0;fillColor=none;points=[[0,0.5],[1,0.5]];portConstraint=eastwest;strokeColor=inherit;fontSize=16;" vertex="1" parent="SDJYcs08kDQBclbEcMUW-59">
          <mxGeometry y="180" width="310" height="30" as="geometry" />
        </mxCell>
        <mxCell id="SDJYcs08kDQBclbEcMUW-76" value="6" style="shape=partialRectangle;html=1;whiteSpace=wrap;connectable=0;fillColor=none;top=0;left=0;bottom=0;right=0;overflow=hidden;strokeColor=inherit;fontSize=16;" vertex="1" parent="SDJYcs08kDQBclbEcMUW-75">
          <mxGeometry width="68" height="30" as="geometry">
            <mxRectangle width="68" height="30" as="alternateBounds" />
          </mxGeometry>
        </mxCell>
        <mxCell id="SDJYcs08kDQBclbEcMUW-77" value="Время вылета" style="shape=partialRectangle;html=1;whiteSpace=wrap;connectable=0;fillColor=none;top=0;left=0;bottom=0;right=0;align=left;spacingLeft=6;overflow=hidden;strokeColor=inherit;fontSize=16;" vertex="1" parent="SDJYcs08kDQBclbEcMUW-75">
          <mxGeometry x="68" width="242" height="30" as="geometry">
            <mxRectangle width="242" height="30" as="alternateBounds" />
          </mxGeometry>
        </mxCell>
        <mxCell id="SDJYcs08kDQBclbEcMUW-78" value="" style="shape=tableRow;horizontal=0;startSize=0;swimlaneHead=0;swimlaneBody=0;top=0;left=0;bottom=0;right=0;collapsible=0;dropTarget=0;fillColor=none;points=[[0,0.5],[1,0.5]];portConstraint=eastwest;strokeColor=inherit;fontSize=16;" vertex="1" parent="SDJYcs08kDQBclbEcMUW-59">
          <mxGeometry y="210" width="310" height="30" as="geometry" />
        </mxCell>
        <mxCell id="SDJYcs08kDQBclbEcMUW-79" value="7" style="shape=partialRectangle;html=1;whiteSpace=wrap;connectable=0;fillColor=none;top=0;left=0;bottom=0;right=0;overflow=hidden;strokeColor=inherit;fontSize=16;" vertex="1" parent="SDJYcs08kDQBclbEcMUW-78">
          <mxGeometry width="68" height="30" as="geometry">
            <mxRectangle width="68" height="30" as="alternateBounds" />
          </mxGeometry>
        </mxCell>
        <mxCell id="SDJYcs08kDQBclbEcMUW-80" value="Время прилета" style="shape=partialRectangle;html=1;whiteSpace=wrap;connectable=0;fillColor=none;top=0;left=0;bottom=0;right=0;align=left;spacingLeft=6;overflow=hidden;strokeColor=inherit;fontSize=16;" vertex="1" parent="SDJYcs08kDQBclbEcMUW-78">
          <mxGeometry x="68" width="242" height="30" as="geometry">
            <mxRectangle width="242" height="30" as="alternateBounds" />
          </mxGeometry>
        </mxCell>
        <mxCell id="SDJYcs08kDQBclbEcMUW-217" value="" style="shape=tableRow;horizontal=0;startSize=0;swimlaneHead=0;swimlaneBody=0;top=0;left=0;bottom=0;right=0;collapsible=0;dropTarget=0;fillColor=none;points=[[0,0.5],[1,0.5]];portConstraint=eastwest;strokeColor=inherit;fontSize=16;" vertex="1" parent="SDJYcs08kDQBclbEcMUW-59">
          <mxGeometry y="240" width="310" height="30" as="geometry" />
        </mxCell>
        <mxCell id="SDJYcs08kDQBclbEcMUW-218" value="8" style="shape=partialRectangle;html=1;whiteSpace=wrap;connectable=0;fillColor=none;top=0;left=0;bottom=0;right=0;overflow=hidden;strokeColor=inherit;fontSize=16;" vertex="1" parent="SDJYcs08kDQBclbEcMUW-217">
          <mxGeometry width="68" height="30" as="geometry">
            <mxRectangle width="68" height="30" as="alternateBounds" />
          </mxGeometry>
        </mxCell>
        <mxCell id="SDJYcs08kDQBclbEcMUW-219" value="Пункт назначения" style="shape=partialRectangle;html=1;whiteSpace=wrap;connectable=0;fillColor=none;top=0;left=0;bottom=0;right=0;align=left;spacingLeft=6;overflow=hidden;strokeColor=inherit;fontSize=16;" vertex="1" parent="SDJYcs08kDQBclbEcMUW-217">
          <mxGeometry x="68" width="242" height="30" as="geometry">
            <mxRectangle width="242" height="30" as="alternateBounds" />
          </mxGeometry>
        </mxCell>
        <mxCell id="SDJYcs08kDQBclbEcMUW-81" value="Полоса" style="shape=table;startSize=30;container=1;collapsible=0;childLayout=tableLayout;fixedRows=1;rowLines=0;fontStyle=0;strokeColor=default;fontSize=16;" vertex="1" parent="1">
          <mxGeometry x="1060" y="293" width="305" height="90" as="geometry" />
        </mxCell>
        <mxCell id="SDJYcs08kDQBclbEcMUW-82" value="" style="shape=tableRow;horizontal=0;startSize=0;swimlaneHead=0;swimlaneBody=0;top=0;left=0;bottom=0;right=0;collapsible=0;dropTarget=0;fillColor=none;points=[[0,0.5],[1,0.5]];portConstraint=eastwest;strokeColor=inherit;fontSize=16;" vertex="1" parent="SDJYcs08kDQBclbEcMUW-81">
          <mxGeometry y="30" width="305" height="30" as="geometry" />
        </mxCell>
        <mxCell id="SDJYcs08kDQBclbEcMUW-83" value="1" style="shape=partialRectangle;html=1;whiteSpace=wrap;connectable=0;fillColor=none;top=0;left=0;bottom=0;right=0;overflow=hidden;pointerEvents=1;strokeColor=inherit;fontSize=16;" vertex="1" parent="SDJYcs08kDQBclbEcMUW-82">
          <mxGeometry width="68" height="30" as="geometry">
            <mxRectangle width="68" height="30" as="alternateBounds" />
          </mxGeometry>
        </mxCell>
        <mxCell id="SDJYcs08kDQBclbEcMUW-84" value="ID_Полосы" style="shape=partialRectangle;html=1;whiteSpace=wrap;connectable=0;fillColor=none;top=0;left=0;bottom=0;right=0;align=left;spacingLeft=6;overflow=hidden;strokeColor=inherit;fontSize=16;" vertex="1" parent="SDJYcs08kDQBclbEcMUW-82">
          <mxGeometry x="68" width="237" height="30" as="geometry">
            <mxRectangle width="237" height="30" as="alternateBounds" />
          </mxGeometry>
        </mxCell>
        <mxCell id="SDJYcs08kDQBclbEcMUW-85" value="" style="shape=tableRow;horizontal=0;startSize=0;swimlaneHead=0;swimlaneBody=0;top=0;left=0;bottom=0;right=0;collapsible=0;dropTarget=0;fillColor=none;points=[[0,0.5],[1,0.5]];portConstraint=eastwest;strokeColor=inherit;fontSize=16;" vertex="1" parent="SDJYcs08kDQBclbEcMUW-81">
          <mxGeometry y="60" width="305" height="30" as="geometry" />
        </mxCell>
        <mxCell id="SDJYcs08kDQBclbEcMUW-86" value="2" style="shape=partialRectangle;html=1;whiteSpace=wrap;connectable=0;fillColor=none;top=0;left=0;bottom=0;right=0;overflow=hidden;strokeColor=inherit;fontSize=16;" vertex="1" parent="SDJYcs08kDQBclbEcMUW-85">
          <mxGeometry width="68" height="30" as="geometry">
            <mxRectangle width="68" height="30" as="alternateBounds" />
          </mxGeometry>
        </mxCell>
        <mxCell id="SDJYcs08kDQBclbEcMUW-87" value="Название" style="shape=partialRectangle;html=1;whiteSpace=wrap;connectable=0;fillColor=none;top=0;left=0;bottom=0;right=0;align=left;spacingLeft=6;overflow=hidden;strokeColor=inherit;fontSize=16;" vertex="1" parent="SDJYcs08kDQBclbEcMUW-85">
          <mxGeometry x="68" width="237" height="30" as="geometry">
            <mxRectangle width="237" height="30" as="alternateBounds" />
          </mxGeometry>
        </mxCell>
        <mxCell id="SDJYcs08kDQBclbEcMUW-88" value="Авиакомпания" style="shape=table;startSize=30;container=1;collapsible=0;childLayout=tableLayout;fixedRows=1;rowLines=0;fontStyle=0;strokeColor=default;fontSize=16;" vertex="1" parent="1">
          <mxGeometry x="1833" y="964" width="300" height="120" as="geometry" />
        </mxCell>
        <mxCell id="SDJYcs08kDQBclbEcMUW-89" value="" style="shape=tableRow;horizontal=0;startSize=0;swimlaneHead=0;swimlaneBody=0;top=0;left=0;bottom=0;right=0;collapsible=0;dropTarget=0;fillColor=none;points=[[0,0.5],[1,0.5]];portConstraint=eastwest;strokeColor=inherit;fontSize=16;" vertex="1" parent="SDJYcs08kDQBclbEcMUW-88">
          <mxGeometry y="30" width="300" height="30" as="geometry" />
        </mxCell>
        <mxCell id="SDJYcs08kDQBclbEcMUW-90" value="1" style="shape=partialRectangle;html=1;whiteSpace=wrap;connectable=0;fillColor=none;top=0;left=0;bottom=0;right=0;overflow=hidden;pointerEvents=1;strokeColor=inherit;fontSize=16;" vertex="1" parent="SDJYcs08kDQBclbEcMUW-89">
          <mxGeometry width="66" height="30" as="geometry">
            <mxRectangle width="66" height="30" as="alternateBounds" />
          </mxGeometry>
        </mxCell>
        <mxCell id="SDJYcs08kDQBclbEcMUW-91" value="ID_Авиакомпании" style="shape=partialRectangle;html=1;whiteSpace=wrap;connectable=0;fillColor=none;top=0;left=0;bottom=0;right=0;align=left;spacingLeft=6;overflow=hidden;strokeColor=inherit;fontSize=16;" vertex="1" parent="SDJYcs08kDQBclbEcMUW-89">
          <mxGeometry x="66" width="234" height="30" as="geometry">
            <mxRectangle width="234" height="30" as="alternateBounds" />
          </mxGeometry>
        </mxCell>
        <mxCell id="SDJYcs08kDQBclbEcMUW-92" value="" style="shape=tableRow;horizontal=0;startSize=0;swimlaneHead=0;swimlaneBody=0;top=0;left=0;bottom=0;right=0;collapsible=0;dropTarget=0;fillColor=none;points=[[0,0.5],[1,0.5]];portConstraint=eastwest;strokeColor=inherit;fontSize=16;" vertex="1" parent="SDJYcs08kDQBclbEcMUW-88">
          <mxGeometry y="60" width="300" height="30" as="geometry" />
        </mxCell>
        <mxCell id="SDJYcs08kDQBclbEcMUW-93" value="2" style="shape=partialRectangle;html=1;whiteSpace=wrap;connectable=0;fillColor=none;top=0;left=0;bottom=0;right=0;overflow=hidden;strokeColor=inherit;fontSize=16;" vertex="1" parent="SDJYcs08kDQBclbEcMUW-92">
          <mxGeometry width="66" height="30" as="geometry">
            <mxRectangle width="66" height="30" as="alternateBounds" />
          </mxGeometry>
        </mxCell>
        <mxCell id="SDJYcs08kDQBclbEcMUW-94" value="Название" style="shape=partialRectangle;html=1;whiteSpace=wrap;connectable=0;fillColor=none;top=0;left=0;bottom=0;right=0;align=left;spacingLeft=6;overflow=hidden;strokeColor=inherit;fontSize=16;" vertex="1" parent="SDJYcs08kDQBclbEcMUW-92">
          <mxGeometry x="66" width="234" height="30" as="geometry">
            <mxRectangle width="234" height="30" as="alternateBounds" />
          </mxGeometry>
        </mxCell>
        <mxCell id="SDJYcs08kDQBclbEcMUW-95" value="" style="shape=tableRow;horizontal=0;startSize=0;swimlaneHead=0;swimlaneBody=0;top=0;left=0;bottom=0;right=0;collapsible=0;dropTarget=0;fillColor=none;points=[[0,0.5],[1,0.5]];portConstraint=eastwest;strokeColor=inherit;fontSize=16;" vertex="1" parent="SDJYcs08kDQBclbEcMUW-88">
          <mxGeometry y="90" width="300" height="30" as="geometry" />
        </mxCell>
        <mxCell id="SDJYcs08kDQBclbEcMUW-96" value="3" style="shape=partialRectangle;html=1;whiteSpace=wrap;connectable=0;fillColor=none;top=0;left=0;bottom=0;right=0;overflow=hidden;strokeColor=inherit;fontSize=16;" vertex="1" parent="SDJYcs08kDQBclbEcMUW-95">
          <mxGeometry width="66" height="30" as="geometry">
            <mxRectangle width="66" height="30" as="alternateBounds" />
          </mxGeometry>
        </mxCell>
        <mxCell id="SDJYcs08kDQBclbEcMUW-97" value="Телефон" style="shape=partialRectangle;html=1;whiteSpace=wrap;connectable=0;fillColor=none;top=0;left=0;bottom=0;right=0;align=left;spacingLeft=6;overflow=hidden;strokeColor=inherit;fontSize=16;" vertex="1" parent="SDJYcs08kDQBclbEcMUW-95">
          <mxGeometry x="66" width="234" height="30" as="geometry">
            <mxRectangle width="234" height="30" as="alternateBounds" />
          </mxGeometry>
        </mxCell>
        <mxCell id="SDJYcs08kDQBclbEcMUW-98" value="Бронирование" style="shape=table;startSize=30;container=1;collapsible=0;childLayout=tableLayout;fixedRows=1;rowLines=0;fontStyle=0;strokeColor=default;fontSize=16;" vertex="1" parent="1">
          <mxGeometry x="1430" y="998" width="307.5" height="90" as="geometry" />
        </mxCell>
        <mxCell id="SDJYcs08kDQBclbEcMUW-99" value="" style="shape=tableRow;horizontal=0;startSize=0;swimlaneHead=0;swimlaneBody=0;top=0;left=0;bottom=0;right=0;collapsible=0;dropTarget=0;fillColor=none;points=[[0,0.5],[1,0.5]];portConstraint=eastwest;strokeColor=inherit;fontSize=16;" vertex="1" parent="SDJYcs08kDQBclbEcMUW-98">
          <mxGeometry y="30" width="307.5" height="30" as="geometry" />
        </mxCell>
        <mxCell id="SDJYcs08kDQBclbEcMUW-100" value="1" style="shape=partialRectangle;html=1;whiteSpace=wrap;connectable=0;fillColor=none;top=0;left=0;bottom=0;right=0;overflow=hidden;pointerEvents=1;strokeColor=inherit;fontSize=16;" vertex="1" parent="SDJYcs08kDQBclbEcMUW-99">
          <mxGeometry width="68" height="30" as="geometry">
            <mxRectangle width="68" height="30" as="alternateBounds" />
          </mxGeometry>
        </mxCell>
        <mxCell id="SDJYcs08kDQBclbEcMUW-101" value="ID_Бронирования" style="shape=partialRectangle;html=1;whiteSpace=wrap;connectable=0;fillColor=none;top=0;left=0;bottom=0;right=0;align=left;spacingLeft=6;overflow=hidden;strokeColor=inherit;fontSize=16;" vertex="1" parent="SDJYcs08kDQBclbEcMUW-99">
          <mxGeometry x="68" width="240" height="30" as="geometry">
            <mxRectangle width="240" height="30" as="alternateBounds" />
          </mxGeometry>
        </mxCell>
        <mxCell id="SDJYcs08kDQBclbEcMUW-105" value="" style="shape=tableRow;horizontal=0;startSize=0;swimlaneHead=0;swimlaneBody=0;top=0;left=0;bottom=0;right=0;collapsible=0;dropTarget=0;fillColor=none;points=[[0,0.5],[1,0.5]];portConstraint=eastwest;strokeColor=inherit;fontSize=16;" vertex="1" parent="SDJYcs08kDQBclbEcMUW-98">
          <mxGeometry y="60" width="307.5" height="30" as="geometry" />
        </mxCell>
        <mxCell id="SDJYcs08kDQBclbEcMUW-106" value="2" style="shape=partialRectangle;html=1;whiteSpace=wrap;connectable=0;fillColor=none;top=0;left=0;bottom=0;right=0;overflow=hidden;strokeColor=inherit;fontSize=16;" vertex="1" parent="SDJYcs08kDQBclbEcMUW-105">
          <mxGeometry width="68" height="30" as="geometry">
            <mxRectangle width="68" height="30" as="alternateBounds" />
          </mxGeometry>
        </mxCell>
        <mxCell id="SDJYcs08kDQBclbEcMUW-107" value="Время брони" style="shape=partialRectangle;html=1;whiteSpace=wrap;connectable=0;fillColor=none;top=0;left=0;bottom=0;right=0;align=left;spacingLeft=6;overflow=hidden;strokeColor=inherit;fontSize=16;" vertex="1" parent="SDJYcs08kDQBclbEcMUW-105">
          <mxGeometry x="68" width="240" height="30" as="geometry">
            <mxRectangle width="240" height="30" as="alternateBounds" />
          </mxGeometry>
        </mxCell>
        <mxCell id="SDJYcs08kDQBclbEcMUW-130" value="&lt;font style=&quot;font-size: 14px;&quot;&gt;Пассажир узнает о&lt;br&gt;стоимость билета&lt;/font&gt;" style="text;html=1;align=center;verticalAlign=middle;resizable=0;points=[];autosize=1;strokeColor=none;fillColor=none;" vertex="1" parent="1">
          <mxGeometry x="1350" y="715" width="141" height="46" as="geometry" />
        </mxCell>
        <mxCell id="SDJYcs08kDQBclbEcMUW-136" value="&lt;font style=&quot;font-size: 14px;&quot;&gt;Пассажир бронирует &lt;br&gt;билет&lt;/font&gt;" style="text;html=1;align=center;verticalAlign=middle;resizable=0;points=[];autosize=1;strokeColor=none;fillColor=none;" vertex="1" parent="1">
          <mxGeometry x="1451" y="914" width="154" height="46" as="geometry" />
        </mxCell>
        <mxCell id="SDJYcs08kDQBclbEcMUW-140" style="edgeStyle=orthogonalEdgeStyle;rounded=0;orthogonalLoop=1;jettySize=auto;html=1;entryX=0.998;entryY=0.133;entryDx=0;entryDy=0;entryPerimeter=0;" edge="1" parent="1" source="SDJYcs08kDQBclbEcMUW-25" target="SDJYcs08kDQBclbEcMUW-47">
          <mxGeometry relative="1" as="geometry" />
        </mxCell>
        <mxCell id="SDJYcs08kDQBclbEcMUW-142" style="edgeStyle=orthogonalEdgeStyle;rounded=0;orthogonalLoop=1;jettySize=auto;html=1;" edge="1" parent="1" source="SDJYcs08kDQBclbEcMUW-99">
          <mxGeometry relative="1" as="geometry">
            <mxPoint x="1192" y="990" as="targetPoint" />
          </mxGeometry>
        </mxCell>
        <mxCell id="SDJYcs08kDQBclbEcMUW-143" value="&lt;font style=&quot;font-size: 14px;&quot;&gt;Билет бронируется&lt;br&gt;&amp;nbsp;на имя пассажира&lt;/font&gt;" style="text;html=1;align=center;verticalAlign=middle;resizable=0;points=[];autosize=1;strokeColor=none;fillColor=none;" vertex="1" parent="1">
          <mxGeometry x="1222" y="981" width="143" height="46" as="geometry" />
        </mxCell>
        <mxCell id="SDJYcs08kDQBclbEcMUW-145" style="edgeStyle=orthogonalEdgeStyle;rounded=0;orthogonalLoop=1;jettySize=auto;html=1;entryX=0.109;entryY=1.133;entryDx=0;entryDy=0;entryPerimeter=0;" edge="1" parent="1" target="SDJYcs08kDQBclbEcMUW-226">
          <mxGeometry relative="1" as="geometry">
            <mxPoint x="1072" y="1181" as="sourcePoint" />
            <Array as="points">
              <mxPoint x="1059" y="1181" />
              <mxPoint x="1059" y="1014" />
              <mxPoint x="1079" y="1014" />
            </Array>
          </mxGeometry>
        </mxCell>
        <mxCell id="SDJYcs08kDQBclbEcMUW-146" value="&lt;font style=&quot;font-size: 14px;&quot;&gt;По ситуации&lt;br&gt;подбирается льгота&lt;/font&gt;" style="text;html=1;align=center;verticalAlign=middle;resizable=0;points=[];autosize=1;strokeColor=none;fillColor=none;" vertex="1" parent="1">
          <mxGeometry x="1057" y="1050" width="146" height="46" as="geometry" />
        </mxCell>
        <mxCell id="SDJYcs08kDQBclbEcMUW-155" value="&lt;font size=&quot;3&quot;&gt;Пассажир узнает&lt;br&gt;детали о своем&amp;nbsp;&lt;br&gt;рейсе&lt;br&gt;&lt;/font&gt;" style="text;html=1;align=center;verticalAlign=middle;resizable=0;points=[];autosize=1;strokeColor=none;fillColor=none;" vertex="1" parent="1">
          <mxGeometry x="1692" y="621" width="145" height="70" as="geometry" />
        </mxCell>
        <mxCell id="SDJYcs08kDQBclbEcMUW-160" value="&lt;font style=&quot;font-size: 14px;&quot;&gt;Пассажир может узнать &lt;br&gt;номер авиакомпании&lt;/font&gt;" style="text;html=1;align=center;verticalAlign=middle;resizable=0;points=[];autosize=1;strokeColor=none;fillColor=none;" vertex="1" parent="1">
          <mxGeometry x="1826" y="914" width="173" height="46" as="geometry" />
        </mxCell>
        <mxCell id="SDJYcs08kDQBclbEcMUW-193" style="edgeStyle=orthogonalEdgeStyle;rounded=0;orthogonalLoop=1;jettySize=auto;html=1;entryX=1;entryY=0.5;entryDx=0;entryDy=0;" edge="1" parent="1" source="l9HdteqBgRpV_Ue3ZMmV-19" target="l9HdteqBgRpV_Ue3ZMmV-25">
          <mxGeometry relative="1" as="geometry" />
        </mxCell>
        <mxCell id="SDJYcs08kDQBclbEcMUW-197" style="edgeStyle=orthogonalEdgeStyle;rounded=0;orthogonalLoop=1;jettySize=auto;html=1;entryX=0;entryY=0.5;entryDx=0;entryDy=0;" edge="1" parent="1" source="Hg6avNIUWi83sciiPh9P-42" target="Hg6avNIUWi83sciiPh9P-35">
          <mxGeometry relative="1" as="geometry">
            <Array as="points">
              <mxPoint x="49" y="145" />
              <mxPoint x="49" y="476" />
            </Array>
          </mxGeometry>
        </mxCell>
        <mxCell id="SDJYcs08kDQBclbEcMUW-198" value="Льготы" style="shape=table;startSize=30;container=1;collapsible=0;childLayout=tableLayout;fixedRows=1;rowLines=0;fontStyle=0;strokeColor=default;fontSize=16;" vertex="1" parent="1">
          <mxGeometry x="1072" y="1138" width="305" height="120" as="geometry" />
        </mxCell>
        <mxCell id="SDJYcs08kDQBclbEcMUW-199" value="" style="shape=tableRow;horizontal=0;startSize=0;swimlaneHead=0;swimlaneBody=0;top=0;left=0;bottom=0;right=0;collapsible=0;dropTarget=0;fillColor=none;points=[[0,0.5],[1,0.5]];portConstraint=eastwest;strokeColor=inherit;fontSize=16;" vertex="1" parent="SDJYcs08kDQBclbEcMUW-198">
          <mxGeometry y="30" width="305" height="30" as="geometry" />
        </mxCell>
        <mxCell id="SDJYcs08kDQBclbEcMUW-200" value="1" style="shape=partialRectangle;html=1;whiteSpace=wrap;connectable=0;fillColor=none;top=0;left=0;bottom=0;right=0;overflow=hidden;pointerEvents=1;strokeColor=inherit;fontSize=16;" vertex="1" parent="SDJYcs08kDQBclbEcMUW-199">
          <mxGeometry width="68" height="30" as="geometry">
            <mxRectangle width="68" height="30" as="alternateBounds" />
          </mxGeometry>
        </mxCell>
        <mxCell id="SDJYcs08kDQBclbEcMUW-201" value="ID_Льготы: INTEGER" style="shape=partialRectangle;html=1;whiteSpace=wrap;connectable=0;fillColor=none;top=0;left=0;bottom=0;right=0;align=left;spacingLeft=6;overflow=hidden;strokeColor=inherit;fontSize=16;" vertex="1" parent="SDJYcs08kDQBclbEcMUW-199">
          <mxGeometry x="68" width="237" height="30" as="geometry">
            <mxRectangle width="237" height="30" as="alternateBounds" />
          </mxGeometry>
        </mxCell>
        <mxCell id="SDJYcs08kDQBclbEcMUW-202" value="" style="shape=tableRow;horizontal=0;startSize=0;swimlaneHead=0;swimlaneBody=0;top=0;left=0;bottom=0;right=0;collapsible=0;dropTarget=0;fillColor=none;points=[[0,0.5],[1,0.5]];portConstraint=eastwest;strokeColor=inherit;fontSize=16;" vertex="1" parent="SDJYcs08kDQBclbEcMUW-198">
          <mxGeometry y="60" width="305" height="30" as="geometry" />
        </mxCell>
        <mxCell id="SDJYcs08kDQBclbEcMUW-203" value="2" style="shape=partialRectangle;html=1;whiteSpace=wrap;connectable=0;fillColor=none;top=0;left=0;bottom=0;right=0;overflow=hidden;strokeColor=inherit;fontSize=16;" vertex="1" parent="SDJYcs08kDQBclbEcMUW-202">
          <mxGeometry width="68" height="30" as="geometry">
            <mxRectangle width="68" height="30" as="alternateBounds" />
          </mxGeometry>
        </mxCell>
        <mxCell id="SDJYcs08kDQBclbEcMUW-204" value="Название: VARCHAR(25)" style="shape=partialRectangle;html=1;whiteSpace=wrap;connectable=0;fillColor=none;top=0;left=0;bottom=0;right=0;align=left;spacingLeft=6;overflow=hidden;strokeColor=inherit;fontSize=16;" vertex="1" parent="SDJYcs08kDQBclbEcMUW-202">
          <mxGeometry x="68" width="237" height="30" as="geometry">
            <mxRectangle width="237" height="30" as="alternateBounds" />
          </mxGeometry>
        </mxCell>
        <mxCell id="SDJYcs08kDQBclbEcMUW-205" value="" style="shape=tableRow;horizontal=0;startSize=0;swimlaneHead=0;swimlaneBody=0;top=0;left=0;bottom=0;right=0;collapsible=0;dropTarget=0;fillColor=none;points=[[0,0.5],[1,0.5]];portConstraint=eastwest;strokeColor=inherit;fontSize=16;" vertex="1" parent="SDJYcs08kDQBclbEcMUW-198">
          <mxGeometry y="90" width="305" height="30" as="geometry" />
        </mxCell>
        <mxCell id="SDJYcs08kDQBclbEcMUW-206" value="3" style="shape=partialRectangle;html=1;whiteSpace=wrap;connectable=0;fillColor=none;top=0;left=0;bottom=0;right=0;overflow=hidden;strokeColor=inherit;fontSize=16;" vertex="1" parent="SDJYcs08kDQBclbEcMUW-205">
          <mxGeometry width="68" height="30" as="geometry">
            <mxRectangle width="68" height="30" as="alternateBounds" />
          </mxGeometry>
        </mxCell>
        <mxCell id="SDJYcs08kDQBclbEcMUW-207" value="Скидка: INTEGER" style="shape=partialRectangle;html=1;whiteSpace=wrap;connectable=0;fillColor=none;top=0;left=0;bottom=0;right=0;align=left;spacingLeft=6;overflow=hidden;strokeColor=inherit;fontSize=16;" vertex="1" parent="SDJYcs08kDQBclbEcMUW-205">
          <mxGeometry x="68" width="237" height="30" as="geometry">
            <mxRectangle width="237" height="30" as="alternateBounds" />
          </mxGeometry>
        </mxCell>
        <mxCell id="SDJYcs08kDQBclbEcMUW-208" style="edgeStyle=orthogonalEdgeStyle;rounded=0;orthogonalLoop=1;jettySize=auto;html=1;" edge="1" parent="1" source="SDJYcs08kDQBclbEcMUW-18">
          <mxGeometry relative="1" as="geometry">
            <mxPoint x="1662" y="622" as="targetPoint" />
          </mxGeometry>
        </mxCell>
        <mxCell id="SDJYcs08kDQBclbEcMUW-209" style="edgeStyle=orthogonalEdgeStyle;rounded=0;orthogonalLoop=1;jettySize=auto;html=1;entryX=0;entryY=0.5;entryDx=0;entryDy=0;" edge="1" parent="1" source="SDJYcs08kDQBclbEcMUW-82" target="SDJYcs08kDQBclbEcMUW-60">
          <mxGeometry relative="1" as="geometry" />
        </mxCell>
        <mxCell id="SDJYcs08kDQBclbEcMUW-210" style="edgeStyle=orthogonalEdgeStyle;rounded=0;orthogonalLoop=1;jettySize=auto;html=1;entryX=0;entryY=0.5;entryDx=0;entryDy=0;" edge="1" parent="1" source="SDJYcs08kDQBclbEcMUW-2" target="SDJYcs08kDQBclbEcMUW-66">
          <mxGeometry relative="1" as="geometry" />
        </mxCell>
        <mxCell id="SDJYcs08kDQBclbEcMUW-211" style="edgeStyle=orthogonalEdgeStyle;rounded=0;orthogonalLoop=1;jettySize=auto;html=1;entryX=0;entryY=0.5;entryDx=0;entryDy=0;" edge="1" parent="1" source="SDJYcs08kDQBclbEcMUW-9" target="SDJYcs08kDQBclbEcMUW-72">
          <mxGeometry relative="1" as="geometry" />
        </mxCell>
        <mxCell id="SDJYcs08kDQBclbEcMUW-212" style="edgeStyle=orthogonalEdgeStyle;rounded=0;orthogonalLoop=1;jettySize=auto;html=1;entryX=-0.001;entryY=0.179;entryDx=0;entryDy=0;entryPerimeter=0;" edge="1" parent="1" source="SDJYcs08kDQBclbEcMUW-34" target="SDJYcs08kDQBclbEcMUW-88">
          <mxGeometry relative="1" as="geometry">
            <Array as="points">
              <mxPoint x="1813" y="985" />
            </Array>
          </mxGeometry>
        </mxCell>
      </root>
    </mxGraphModel>
  </diagram>
</mxfile>
